<svg xmlns="http://www.w3.org/2000/svg" xmlns:xlink="http://www.w3.org/1999/xlink" viewBox="0 0 450 480" width="450" height="480" preserveAspectRatio="xMidYMid meet" style="width: 100%; height: 100%; transform: translate3d(0px, 0px, 0px); content-visibility: visible;"><defs><clipPath id="__lottie_element_61"><rect width="450" height="480" x="0" y="0"></rect></clipPath><clipPath id="__lottie_element_63"><path d="M0,0 L450,0 L450,480 L0,480z"></path></clipPath><clipPath id="__lottie_element_79"><path d="M0,0 L450,0 L450,480 L0,480z"></path></clipPath><g id="__lottie_element_82"><g transform="matrix(0.9999971389770508,0.002402865095064044,-0.002402865095064044,0.9999971389770508,226,238)" opacity="1" style="display: block;"><g opacity="1" transform="matrix(1,0,0,1,0,0)"><path fill="rgb(255,0,0)" fill-opacity="1" d=" M63.5,-94.5 C60.62099838256836,-102.49800109863281 -56,-96 -60,-92 C-62.76100158691406,-89.23899841308594 -68.5,-11 -63,-1 C-59.236000061035156,5.8429999351501465 57.5,2.5 63,-3 C66.53600311279297,-6.535999774932861 72.5,-69.5 63.5,-94.5z"></path></g></g></g><mask id="__lottie_element_82_1" mask-type="alpha"><g><g transform="matrix(0.9999971389770508,0.002402865095064044,-0.002402865095064044,0.9999971389770508,226,238)" opacity="1" style="display: block;"><g opacity="1" transform="matrix(1,0,0,1,0,0)"><path fill="rgb(255,0,0)" fill-opacity="1" d=" M63.5,-94.5 C60.62099838256836,-102.49800109863281 -56,-96 -60,-92 C-62.76100158691406,-89.23899841308594 -68.5,-11 -63,-1 C-59.236000061035156,5.8429999351501465 57.5,2.5 63,-3 C66.53600311279297,-6.535999774932861 72.5,-69.5 63.5,-94.5z"></path></g></g></g></mask><g id="__lottie_element_82"><g transform="matrix(0.9999971389770508,0.002402865095064044,-0.002402865095064044,0.9999971389770508,226,238)" opacity="1" style="display: block;"><g opacity="1" transform="matrix(1,0,0,1,0,0)"><path fill="rgb(255,0,0)" fill-opacity="1" d=" M63.5,-94.5 C60.62099838256836,-102.49800109863281 -56,-96 -60,-92 C-62.76100158691406,-89.23899841308594 -68.5,-11 -63,-1 C-59.236000061035156,5.8429999351501465 57.5,2.5 63,-3 C66.53600311279297,-6.535999774932861 72.5,-69.5 63.5,-94.5z"></path></g></g></g></defs><g clip-path="url(#__lottie_element_61)"><g clip-path="url(#__lottie_element_63)" transform="matrix(1,0,0,1,0,20)" opacity="1" style="display: block;"><g transform="matrix(0.9999950528144836,0.003145417897030711,-0.003145417897030711,0.9999950528144836,85.89263916015625,249.7382049560547)" opacity="1" style="display: block;"><g opacity="1" transform="matrix(1,0,0,1,144.15199279785156,39.51900100708008)"><path fill="#FBDA5F" fill-opacity="1" d=" M-124.89800262451172,-20.704999923706055 C-124.89800262451172,-20.704999923706055 -129.15199279785156,15.800999641418457 -124.29000091552734,16.889999389648438 C-119.4280014038086,17.979999542236328 119.4280014038086,24.518999099731445 121.85900115966797,15.800999641418457 C124.29000091552734,7.083000183105469 129.15199279785156,-19.614999771118164 121.85900115966797,-21.25 C114.56600189208984,-22.884000778198242 -124.89800262451172,-24.518999099731445 -124.89800262451172,-20.704999923706055z"></path><path stroke-linecap="round" stroke-linejoin="round" fill-opacity="0" stroke="#615D56" stroke-opacity="1" stroke-width="6px" d=" M-124.89800262451172,-20.704999923706055 C-124.89800262451172,-20.704999923706055 -129.15199279785156,15.800999641418457 -124.29000091552734,16.889999389648438 C-119.4280014038086,17.979999542236328 119.4280014038086,24.518999099731445 121.85900115966797,15.800999641418457 C124.29000091552734,7.083000183105469 129.15199279785156,-19.614999771118164 121.85900115966797,-21.25 C114.56600189208984,-22.884000778198242 -124.89800262451172,-24.518999099731445 -124.89800262451172,-20.704999923706055z"></path></g></g><g transform="matrix(0.7999960780143738,0.0025163344107568264,-0.0025163344107568264,0.7999960780143738,112.14592742919922,273.5309143066406)" opacity="1" style="display: block;"><g opacity="1" transform="matrix(1,0,0,1,14.036999702453613,15.3149995803833)"><path stroke-linecap="round" stroke-linejoin="round" fill-opacity="0" stroke="#615D56" stroke-opacity="1" stroke-width="6px" d=" M8.402999877929688,0 C8.402999877929688,4.640999794006348 4.640999794006348,8.402999877929688 0,8.402999877929688 C-4.640999794006348,8.402999877929688 -8.402999877929688,4.640999794006348 -8.402999877929688,0 C-8.402999877929688,-4.640999794006348 -4.640999794006348,-8.402999877929688 0,-8.402999877929688 C4.640999794006348,-8.402999877929688 8.402999877929688,-4.640999794006348 8.402999877929688,0z"></path></g><g opacity="1" transform="matrix(1,0,0,1,23.165000915527344,24.783000946044922)"><path stroke-linecap="round" stroke-linejoin="round" fill-opacity="0" stroke="#615D56" stroke-opacity="1" stroke-width="6px" d=" M2.2360000610351562,2.2360000610351562 C2.2360000610351562,2.2360000610351562 -2.2360000610351562,-2.2360000610351562 -2.2360000610351562,-2.2360000610351562"></path></g></g><g transform="matrix(1.0999809503555298,0.0064698983915150166,-0.0064698983915150166,1.0999809503555298,140.704345703125,277.4424133300781)" opacity="1" style="display: none;"><g opacity="0" transform="matrix(0.5241900086402893,0,0,0.5241900086402893,4.5596747398376465,16.161846160888672)"><path fill="#605C55" fill-opacity="1" d=" M-7.928999900817871,-30.884000778198242 C-8.42300033569336,-30.599000930786133 -9.074000358581543,-29.969999313354492 -9.883000373840332,-28.996999740600586 C-11.170999526977539,-27.125 -11.814000129699707,-25.132999420166016 -11.814000129699707,-23.02199935913086 C-11.814000129699707,-23.02199935913086 -11.814000129699707,-22.618000030517578 -11.814000129699707,-22.618000030517578 C-11.753999710083008,-21.149999618530273 -11.26099967956543,-19.750999450683594 -10.331999778747559,-18.417999267578125 C-10.062000274658203,-17.86400032043457 -9.277000427246094,-17.06999969482422 -7.973999977111816,-16.03700065612793 C-6.5970001220703125,-15.107999801635742 -4.948999881744385,-14.255000114440918 -3.0320000648498535,-13.47700023651123 C1.0709999799728394,-11.9350004196167 3.13700008392334,-10.75100040435791 3.1670000553131104,-9.928000450134277 C3.1670000553131104,-9.928000450134277 3.1670000553131104,-9.859999656677246 3.1670000553131104,-9.859999656677246 C3.1670000553131104,-9.425999641418457 3.0390000343322754,-8.932000160217285 2.7850000858306885,-8.378000259399414 C2.3359999656677246,-7.568999767303467 1.309999942779541,-7.135000228881836 -0.2919999957084656,-7.074999809265137 C-0.2919999957084656,-7.074999809265137 -0.5170000195503235,-7.052999973297119 -0.5170000195503235,-7.052999973297119 C-0.5170000195503235,-7.052999973297119 -0.8539999723434448,-7.052999973297119 -0.8539999723434448,-7.052999973297119 C-2.246999979019165,-7.052999973297119 -3.86299991607666,-7.300000190734863 -5.704999923706055,-7.794000148773193 C-7.038000106811523,-8.243000030517578 -7.959000110626221,-8.468000411987305 -8.468000411987305,-8.468000411987305 C-8.468000411987305,-8.468000411987305 -8.512999534606934,-8.468000411987305 -8.512999534606934,-8.468000411987305 C-9.17199993133545,-8.437999725341797 -9.800000190734863,-8.227999687194824 -10.39900016784668,-7.839000225067139 C-11.402000427246094,-7.059999942779541 -11.904000282287598,-6.117000102996826 -11.904000282287598,-5.008999824523926 C-11.904000282287598,-5.008999824523926 -11.904000282287598,-4.828999996185303 -11.904000282287598,-4.828999996185303 C-11.87399959564209,-3.9600000381469727 -11.545000076293945,-3.181999921798706 -10.916000366210938,-2.493000030517578 C-10.437000274658203,-2.0139999389648438 -9.822999954223633,-1.6629999876022339 -9.074000358581543,-1.437999963760376 C-5.945000171661377,-0.47999998927116394 -3.2869999408721924,0 -1.1009999513626099,0 C-1.1009999513626099,0 -0.5619999766349792,0 -0.5619999766349792,0 C-0.5619999766349792,0 0.38199999928474426,-0.04500000178813934 0.38199999928474426,-0.04500000178813934 C0.8309999704360962,-0.05999999865889549 1.4670000076293945,-0.1420000046491623 2.2909998893737793,-0.2919999957084656 C4.2230000495910645,-0.7409999966621399 5.757999897003174,-1.468000054359436 6.895999908447266,-2.4709999561309814 C7.959000110626221,-3.489000082015991 8.616999626159668,-4.2829999923706055 8.871999740600586,-4.8520002365112305 C9.770000457763672,-6.589000225067139 10.220000267028809,-8.204999923706055 10.220000267028809,-9.70300006866455 C10.220000267028809,-9.70300006866455 10.220000267028809,-10.286999702453613 10.220000267028809,-10.286999702453613 C10.114999771118164,-12.713000297546387 8.88700008392334,-14.831999778747559 6.535999774932861,-16.643999099731445 C5.263000011444092,-17.511999130249023 3.7809998989105225,-18.30500030517578 2.0889999866485596,-19.02400016784668 C-2.433000087738037,-20.715999603271484 -4.709000110626221,-21.996000289916992 -4.738999843597412,-22.864999771118164 C-4.738999843597412,-22.864999771118164 -4.76200008392334,-23.156999588012695 -4.76200008392334,-23.156999588012695 C-4.76200008392334,-23.35099983215332 -4.709000110626221,-23.659000396728516 -4.604000091552734,-24.077999114990234 C-4.364999771118164,-25.020999908447266 -3.5490000247955322,-25.516000747680664 -2.1559998989105225,-25.56100082397461 C-2.1559998989105225,-25.56100082397461 -1.909000039100647,-25.58300018310547 -1.909000039100647,-25.58300018310547 C-1.909000039100647,-25.58300018310547 -1.5950000286102295,-25.58300018310547 -1.5950000286102295,-25.58300018310547 C-0.2329999953508377,-25.58300018310547 1.4600000381469727,-25.23900032043457 3.4809999465942383,-24.549999237060547 C4.723999977111816,-23.996000289916992 5.644999980926514,-23.7189998626709 6.24399995803833,-23.7189998626709 C6.24399995803833,-23.7189998626709 6.334000110626221,-23.7189998626709 6.334000110626221,-23.7189998626709 C6.993000030517578,-23.733999252319336 7.622000217437744,-23.944000244140625 8.220999717712402,-24.347999572753906 C9.23900032043457,-25.142000198364258 9.748000144958496,-26.100000381469727 9.748000144958496,-27.222999572753906 C9.748000144958496,-27.222999572753906 9.748000144958496,-27.35700035095215 9.748000144958496,-27.35700035095215 C9.687999725341797,-28.884000778198242 8.819999694824219,-29.993000030517578 7.14300012588501,-30.68199920654297 C3.759000062942505,-31.985000610351562 0.9129999876022339,-32.63600158691406 -1.3930000066757202,-32.63600158691406 C-1.3930000066757202,-32.63600158691406 -1.8420000076293945,-32.63600158691406 -1.8420000076293945,-32.63600158691406 C-1.8420000076293945,-32.63600158691406 -2.808000087738037,-32.590999603271484 -2.808000087738037,-32.590999603271484 C-4.590000152587891,-32.53099822998047 -6.296999931335449,-31.961999893188477 -7.928999900817871,-30.884000778198242z"></path></g><g opacity="0" transform="matrix(1,0,0,1,16.716999053955078,9.593999862670898)"><path fill="#615D56" fill-opacity="1" d=" M0.33899998664855957,-6.138000011444092 C1.5169999599456787,-6.138000011444092 2.76200008392334,-5.888000011444092 4.073999881744385,-5.38700008392334 C4.716000080108643,-5.0269999504089355 5.0370001792907715,-4.51200008392334 5.0370001792907715,-3.8420000076293945 C5.0370001792907715,-3.8420000076293945 5.026000022888184,-3.683000087738037 5.026000022888184,-3.683000087738037 C5.308000087738037,-3.38700008392334 5.448999881744385,-2.8989999294281006 5.448999881744385,-2.2230000495910645 C5.464000225067139,-2.2230000495910645 5.46999979019165,-1.9930000305175781 5.46999979019165,-1.534999966621399 C5.46999979019165,-1.0829999446868896 5.466000080108643,-0.625 5.460000038146973,-0.1589999943971634 C5.515999794006348,2.500999927520752 5.546000003814697,4.006999969482422 5.546000003814697,4.359000205993652 C5.546000003814697,4.8470001220703125 5.315000057220459,5.28000020980835 4.855999946594238,5.660999774932861 C4.546000003814697,5.873000144958496 4.2170000076293945,5.978000164031982 3.872999906539917,5.978000164031982 C3.3989999294281006,5.978000164031982 2.9800000190734863,5.784999847412109 2.61299991607666,5.395999908447266 C2.61299991607666,5.395999908447266 2.5910000801086426,5.38700008392334 2.5910000801086426,5.38700008392334 C1.5829999446868896,5.888000011444092 0.6200000047683716,6.138000011444092 -0.296999990940094,6.138000011444092 C-0.296999990940094,6.138000011444092 -0.5830000042915344,6.138000011444092 -0.5830000042915344,6.138000011444092 C-1.684000015258789,6.138000011444092 -2.703000068664551,5.784999847412109 -3.6410000324249268,5.078999996185303 C-4.910999774932861,4.006999969482422 -5.546000003814697,2.490000009536743 -5.546000003814697,0.5289999842643738 C-5.546000003814697,-1.722000002861023 -4.910999774932861,-3.4679999351501465 -3.6410000324249268,-4.710000038146973 C-2.5829999446868896,-5.6620001792907715 -1.25600004196167,-6.138000011444092 0.33899998664855957,-6.138000011444092z M-2.2230000495910645,0.4970000088214874 C-2.2230000495910645,1.61899995803833 -1.9259999990463257,2.3320000171661377 -1.3329999446868896,2.634999990463257 C-1.093999981880188,2.755000114440918 -0.8019999861717224,2.813999891281128 -0.4560000002384186,2.813999891281128 C-0.4560000002384186,2.813999891281128 -0.4350000023841858,2.813999891281128 -0.4350000023841858,2.813999891281128 C0.27000001072883606,2.813999891281128 0.8880000114440918,2.6059999465942383 1.4170000553131104,2.190000057220459 C1.5299999713897705,2.069999933242798 1.6460000276565552,1.8580000400543213 1.7660000324249268,1.555999994277954 C2.00600004196167,0.8080000281333923 2.128000020980835,0.13099999725818634 2.128000020980835,-0.47699999809265137 C2.128000020980835,-0.765999972820282 2.11899995803833,-1.4570000171661377 2.1050000190734863,-2.5510001182556152 C1.4559999704360962,-2.7269999980926514 0.8600000143051147,-2.815999984741211 0.3160000145435333,-2.815999984741211 C-0.7770000100135803,-2.815999984741211 -1.496000051498413,-2.4170000553131104 -1.8420000076293945,-1.61899995803833 C-2.0959999561309814,-0.9909999966621399 -2.2230000495910645,-0.28600001335144043 -2.2230000495910645,0.4970000088214874z"></path></g><g opacity="0" transform="matrix(1,0,0,1,28.584999084472656,9.720999717712402)"><path fill="#615D56" fill-opacity="1" d=" M4.090000152587891,-6.010000228881836 C4.690000057220459,-6.010000228881836 5.177000045776367,-5.706999778747559 5.551000118255615,-5.099999904632568 C5.671000003814697,-4.831999778747559 5.730999946594238,-4.578999996185303 5.730999946594238,-4.339000225067139 C5.730999946594238,-4.043000221252441 5.578999996185303,-3.5869998931884766 5.276000022888184,-2.9730000495910645 C3.2929999828338623,1.6339999437332153 2.114000082015991,4.353000164031982 1.7410000562667847,5.185999870300293 C1.3669999837875366,5.736000061035156 0.8870000243186951,6.010000228881836 0.3019999861717224,6.010000228881836 C-0.46799999475479126,6.010000228881836 -1.0470000505447388,5.534999847412109 -1.434000015258789,4.583000183105469 C-4.164999961853027,-0.6520000100135803 -5.568999767303467,-3.368000030517578 -5.645999908447266,-3.565999984741211 C-5.703000068664551,-3.7909998893737793 -5.730999946594238,-3.9709999561309814 -5.730999946594238,-4.105999946594238 C-5.730999946594238,-4.6620001792907715 -5.473999977111816,-5.129000186920166 -4.959000110626221,-5.502999782562256 C-4.670000076293945,-5.679999828338623 -4.369999885559082,-5.76800012588501 -4.059000015258789,-5.76800012588501 C-3.4809999465942383,-5.76800012588501 -3.005000114440918,-5.486000061035156 -2.63100004196167,-4.921000003814697 C-0.796999990940094,-1.378999948501587 0.13899999856948853,0.4129999876022339 0.17399999499320984,0.4560000002384186 C0.20900000631809235,0.4129999876022339 0.9079999923706055,-1.2020000219345093 2.2699999809265137,-4.390999794006348 C2.5380001068115234,-5.074999809265137 2.816999912261963,-5.508999824523926 3.1070001125335693,-5.692999839782715 C3.4159998893737793,-5.90500020980835 3.74399995803833,-6.010000228881836 4.090000152587891,-6.010000228881836z"></path></g><g opacity="0" transform="matrix(1,0,0,1,40.4109992980957,9.711000442504883)"><path fill="#615D56" fill-opacity="1" d=" M-0.40299999713897705,-6.020999908447266 C-0.40299999713897705,-6.020999908447266 -0.1379999965429306,-6.020999908447266 -0.1379999965429306,-6.020999908447266 C2.0850000381469727,-6.020999908447266 3.753000020980835,-5.245999813079834 4.868000030517578,-3.694000005722046 C5.460999965667725,-2.7909998893737793 5.756999969482422,-1.7610000371932983 5.756999969482422,-0.6039999723434448 C5.756999969482422,0.3269999921321869 5.322999954223633,0.9309999942779541 4.454999923706055,1.2050000429153442 C4.454999923706055,1.2480000257492065 2.384000062942505,1.3250000476837158 -1.7569999694824219,1.4390000104904175 C-1.5950000286102295,1.784000039100647 -1.277999997138977,2.115999937057495 -0.8040000200271606,2.434000015258789 C-0.5230000019073486,2.6040000915527344 -0.19499999284744263,2.687999963760376 0.17900000512599945,2.687999963760376 C0.17900000512599945,2.687999963760376 0.3700000047683716,2.687999963760376 0.3700000047683716,2.687999963760376 C1.2949999570846558,2.687999963760376 2.0320000648498535,2.4539999961853027 2.5820000171661377,1.9880000352859497 C2.871000051498413,1.8329999446868896 3.1389999389648438,1.7569999694824219 3.385999917984009,1.7569999694824219 C3.385999917984009,1.7569999694824219 3.492000102996826,1.7569999694824219 3.492000102996826,1.7569999694824219 C4.105999946594238,1.7569999694824219 4.5960001945495605,2.0840001106262207 4.9629998207092285,2.740000009536743 C5.047999858856201,2.9800000190734863 5.091000080108643,3.188999891281128 5.091000080108643,3.365000009536743 C5.091000080108643,3.365000009536743 5.091000080108643,3.4700000286102295 5.091000080108643,3.4700000286102295 C5.091000080108643,4.4079999923706055 4.236000061035156,5.156000137329102 2.5290000438690186,5.714000225067139 C1.8240000009536743,5.918000221252441 1.0870000123977661,6.020999908447266 0.31700000166893005,6.020999908447266 C-1.2209999561309814,6.020999908447266 -2.500999927520752,5.52400016784668 -3.5239999294281006,4.5289998054504395 C-4.011000156402588,4.050000190734863 -4.353000164031982,3.635999917984009 -4.551000118255615,3.2899999618530273 C-5.192999839782715,2.2960000038146973 -5.584000110626221,1.1979999542236328 -5.724999904632568,-0.0010000000474974513 C-5.745999813079834,-0.22699999809265137 -5.756999969482422,-0.4059999883174896 -5.756999969482422,-0.5410000085830688 C-5.756999969482422,-0.5410000085830688 -5.756999969482422,-0.9639999866485596 -5.756999969482422,-0.9639999866485596 C-5.756999969482422,-2.1559998989105225 -5.372000217437744,-3.253000020980835 -4.604000091552734,-4.255000114440918 C-3.6089999675750732,-5.434000015258789 -2.2079999446868896,-6.020999908447266 -0.40299999713897705,-6.020999908447266z M-2.180000066757202,-1.8739999532699585 C-2.180000066757202,-1.8739999532699585 -2.1689999103546143,-1.8739999532699585 -2.1689999103546143,-1.8739999532699585 C-1.8380000591278076,-1.8739999532699585 -0.4729999899864197,-1.9160000085830688 1.9249999523162842,-2.000999927520752 C1.9249999523162842,-2.000999927520752 1.9249999523162842,-2.0329999923706055 1.9249999523162842,-2.0329999923706055 C1.4880000352859497,-2.4779999256134033 0.7549999952316284,-2.6989998817443848 -0.2759999930858612,-2.6989998817443848 C-1.277999997138977,-2.6989998817443848 -1.9019999504089355,-2.4549999237060547 -2.1489999294281006,-1.968999981880188 C-2.1619999408721924,-1.968999981880188 -2.1730000972747803,-1.937000036239624 -2.180000066757202,-1.8739999532699585z"></path></g><g opacity="0" transform="matrix(0.4930799901485443,0,0,0.4930799901485443,53.15578842163086,16.08104705810547)"><path fill="#605C55" fill-opacity="1" d=" M-0.9210000038146973,-24.347999572753906 C1.6089999675750732,-23.045000076293945 2.875,-20.3799991607666 2.875,-16.351999282836914 C2.875,-12.519000053405762 1.4450000524520874,-9.883000373840332 -1.4149999618530273,-8.444999694824219 C-3.002000093460083,-7.75600004196167 -4.035999774932861,-7.4120001792907715 -4.514999866485596,-7.4120001792907715 C-4.514999866485596,-7.4120001792907715 -4.244999885559082,-25.268999099731445 -4.244999885559082,-25.268999099731445 C-4.244999885559082,-25.268999099731445 -4.244999885559082,-25.291000366210938 -4.244999885559082,-25.291000366210938 C-3.3910000324249268,-25.291000366210938 -2.2839999198913574,-24.976999282836914 -0.9210000038146973,-24.347999572753906z M-5.997000217437744,-32.45600128173828 C-8.168000221252441,-32.45600128173828 -9.583000183105469,-32.051998138427734 -10.241999626159668,-31.243000030517578 C-10.720999717712402,-30.79400062561035 -11.043000221252441,-30.14299964904785 -11.208000183105469,-29.288999557495117 C-11.253000259399414,-29.018999099731445 -11.38700008392334,-20.386999130249023 -11.612000465393066,-3.3919999599456787 C-11.612000465393066,-3.197000026702881 -11.538000106811523,-2.8369998931884766 -11.387999534606934,-2.312999963760376 C-10.654999732971191,-0.7710000276565552 -9.52299976348877,0 -7.995999813079834,0 C-7.995999813079834,0 -7.815999984741211,0 -7.815999984741211,0 C-4.118000030517578,0 -0.718999981880188,-0.8309999704360962 2.38100004196167,-2.493000030517578 C7.4120001792907715,-5.4730000495910645 9.928000450134277,-10.093000411987305 9.928000450134277,-16.351999282836914 C9.928000450134277,-21.593000411987305 8.347000122070312,-25.68000030517578 5.188000202178955,-28.614999771118164 C2.2679998874664307,-31.176000595092773 -1.3930000066757202,-32.45600128173828 -5.795000076293945,-32.45600128173828 C-5.795000076293945,-32.45600128173828 -5.997000217437744,-32.45600128173828 -5.997000217437744,-32.45600128173828z"></path></g><g opacity="0" transform="matrix(1,0,0,1,64.52899932861328,9.593999862670898)"><path fill="#615D56" fill-opacity="1" d=" M0.33899998664855957,-6.138000011444092 C1.5169999599456787,-6.138000011444092 2.76200008392334,-5.888000011444092 4.073999881744385,-5.38700008392334 C4.716000080108643,-5.0269999504089355 5.0370001792907715,-4.51200008392334 5.0370001792907715,-3.8420000076293945 C5.0370001792907715,-3.8420000076293945 5.026000022888184,-3.683000087738037 5.026000022888184,-3.683000087738037 C5.308000087738037,-3.38700008392334 5.448999881744385,-2.8989999294281006 5.448999881744385,-2.2230000495910645 C5.464000225067139,-2.2230000495910645 5.46999979019165,-1.9930000305175781 5.46999979019165,-1.534999966621399 C5.46999979019165,-1.0829999446868896 5.466000080108643,-0.625 5.460000038146973,-0.1589999943971634 C5.515999794006348,2.500999927520752 5.546000003814697,4.006999969482422 5.546000003814697,4.359000205993652 C5.546000003814697,4.8470001220703125 5.315000057220459,5.28000020980835 4.855999946594238,5.660999774932861 C4.546000003814697,5.873000144958496 4.2170000076293945,5.978000164031982 3.872999906539917,5.978000164031982 C3.3989999294281006,5.978000164031982 2.9800000190734863,5.784999847412109 2.61299991607666,5.395999908447266 C2.61299991607666,5.395999908447266 2.5910000801086426,5.38700008392334 2.5910000801086426,5.38700008392334 C1.5829999446868896,5.888000011444092 0.6200000047683716,6.138000011444092 -0.296999990940094,6.138000011444092 C-0.296999990940094,6.138000011444092 -0.5830000042915344,6.138000011444092 -0.5830000042915344,6.138000011444092 C-1.684000015258789,6.138000011444092 -2.703000068664551,5.784999847412109 -3.6410000324249268,5.078999996185303 C-4.910999774932861,4.006999969482422 -5.546000003814697,2.490000009536743 -5.546000003814697,0.5289999842643738 C-5.546000003814697,-1.722000002861023 -4.910999774932861,-3.4679999351501465 -3.6410000324249268,-4.710000038146973 C-2.5829999446868896,-5.6620001792907715 -1.25600004196167,-6.138000011444092 0.33899998664855957,-6.138000011444092z M-2.2230000495910645,0.4970000088214874 C-2.2230000495910645,1.61899995803833 -1.9259999990463257,2.3320000171661377 -1.3329999446868896,2.634999990463257 C-1.093999981880188,2.755000114440918 -0.8019999861717224,2.813999891281128 -0.4560000002384186,2.813999891281128 C-0.4560000002384186,2.813999891281128 -0.4350000023841858,2.813999891281128 -0.4350000023841858,2.813999891281128 C0.27000001072883606,2.813999891281128 0.8880000114440918,2.6059999465942383 1.4170000553131104,2.190000057220459 C1.5299999713897705,2.069999933242798 1.6460000276565552,1.8580000400543213 1.7660000324249268,1.555999994277954 C2.00600004196167,0.8080000281333923 2.128000020980835,0.13099999725818634 2.128000020980835,-0.47699999809265137 C2.128000020980835,-0.765999972820282 2.11899995803833,-1.4570000171661377 2.1050000190734863,-2.5510001182556152 C1.4559999704360962,-2.7269999980926514 0.8600000143051147,-2.815999984741211 0.3160000145435333,-2.815999984741211 C-0.7770000100135803,-2.815999984741211 -1.496000051498413,-2.4170000553131104 -1.8420000076293945,-1.61899995803833 C-2.0959999561309814,-0.9909999966621399 -2.2230000495910645,-0.28600001335144043 -2.2230000495910645,0.4970000088214874z"></path></g><g opacity="0" transform="matrix(1,0,0,1,75.94100189208984,11.319000244140625)"><path fill="#615D56" fill-opacity="1" d=" M3.5299999713897705,-7.48199987411499 C3.5299999713897705,-7.48199987411499 3.614000082015991,-7.48199987411499 3.614000082015991,-7.48199987411499 C4.185999870300293,-7.48199987411499 4.6620001792907715,-7.185999870300293 5.043000221252441,-6.5929999351501465 C5.170000076293945,-6.333000183105469 5.232999801635742,-6.0879998207092285 5.232999801635742,-5.86299991607666 C5.232999801635742,-5.86299991607666 5.232999801635742,-5.7789998054504395 5.232999801635742,-5.7789998054504395 C5.232999801635742,-5.502999782562256 5.078000068664551,-5.0269999504089355 4.76800012588501,-4.349999904632568 C1.902999997138977,2.684000015258789 0.41499999165534973,6.335000038146973 0.3019999861717224,6.603000164031982 C-0.09300000220537186,7.189000129699707 -0.5699999928474426,7.48199987411499 -1.1260000467300415,7.48199987411499 C-1.1260000467300415,7.48199987411499 -1.222000002861023,7.48199987411499 -1.222000002861023,7.48199987411499 C-1.7929999828338623,7.48199987411499 -2.2699999809265137,7.184999942779541 -2.6510000228881836,6.5920000076293945 C-2.7780001163482666,6.330999851226807 -2.8410000801086426,6.0879998207092285 -2.8410000801086426,5.86299991607666 C-2.8410000801086426,5.86299991607666 -2.8410000801086426,5.789000034332275 -2.8410000801086426,5.789000034332275 C-2.8410000801086426,5.513000011444092 -2.671999931335449,5.005000114440918 -2.3329999446868896,4.263999938964844 C-1.7899999618530273,2.9240000247955322 -1.503999948501587,2.2109999656677246 -1.4759999513626099,2.125999927520752 C-3.7899999618530273,-2.3529999256134033 -5.013999938964844,-4.742000102996826 -5.1479997634887695,-5.038000106811523 C-5.203999996185303,-5.235000133514404 -5.232999801635742,-5.3979997634887695 -5.232999801635742,-5.525000095367432 C-5.232999801635742,-5.525000095367432 -5.232999801635742,-5.630000114440918 -5.232999801635742,-5.630000114440918 C-5.232999801635742,-6.24399995803833 -4.90500020980835,-6.734000205993652 -4.248000144958496,-7.10099983215332 C-4.015999794006348,-7.185999870300293 -3.811000108718872,-7.228000164031982 -3.634999990463257,-7.228000164031982 C-3.634999990463257,-7.228000164031982 -3.5290000438690186,-7.228000164031982 -3.5290000438690186,-7.228000164031982 C-2.936000108718872,-7.228000164031982 -2.4489998817443848,-6.914999961853027 -2.069000005722046,-6.2870001792907715 C-0.5870000123977661,-3.4010000228881836 0.16099999845027924,-1.9550000429153442 0.17499999701976776,-1.9479999542236328 C0.17499999701976776,-1.9479999542236328 0.19599999487400055,-1.9479999542236328 0.19599999487400055,-1.9479999542236328 C1.3949999809265137,-4.888999938964844 2.0490000247955322,-6.46999979019165 2.1540000438690186,-6.689000129699707 C2.5350000858306885,-7.2170000076293945 2.99399995803833,-7.48199987411499 3.5299999713897705,-7.48199987411499z"></path></g></g><g transform="matrix(0.49820753931999207,0.0015670786378905177,-0.0015670786378905177,0.49820753931999207,165.80587768554688,295.09112548828125)" opacity="1" style="display: block;"><g opacity="0" transform="matrix(1,0,0,1,0,0)"><path fill="#605C55" fill-opacity="1" d=" M29.704999923706055,-23.94300079345703 C28.775999069213867,-23.118999481201172 28.312000274658203,-22.250999450683594 28.312000274658203,-21.33799934387207 C28.312000274658203,-20.724000930786133 28.43899917602539,-15.07800006866455 28.694000244140625,-4.4019999504089355 C28.694000244140625,-3.053999900817871 28.881000518798828,-2.1489999294281006 29.2549991607666,-1.684999942779541 C30.048999786376953,-0.5619999766349792 31.02199935913086,0 32.17499923706055,0 C32.17499923706055,0 32.35499954223633,0 32.35499954223633,0 C32.96900177001953,0 33.60499954223633,-0.20999999344348907 34.263999938964844,-0.6290000081062317 C35.266998291015625,-1.4670000076293945 35.76900100708008,-2.365999937057495 35.76900100708008,-3.3239998817443848 C35.75400161743164,-5.060999870300293 35.61899948120117,-10.810999870300293 35.3650016784668,-20.573999404907227 C35.3650016784668,-21.562000274658203 35.25299835205078,-22.250999450683594 35.02799987792969,-22.641000747680664 C34.23400115966797,-23.95800018310547 33.20899963378906,-24.617000579833984 31.951000213623047,-24.617000579833984 C31.951000213623047,-24.617000579833984 31.70400047302246,-24.617000579833984 31.70400047302246,-24.617000579833984 C31.059999465942383,-24.617000579833984 30.393999099731445,-24.392000198364258 29.704999923706055,-23.94300079345703z M28.44700050354004,-32.34400177001953 C27.697999954223633,-31.445999145507812 27.323999404907227,-30.538999557495117 27.323999404907227,-29.625999450683594 C27.323999404907227,-29.625999450683594 27.323999404907227,-29.198999404907227 27.323999404907227,-29.198999404907227 C27.323999404907227,-28.256000518798828 27.735000610351562,-27.36400032043457 28.55900001525879,-26.525999069213867 C29.368000030517578,-25.851999282836914 30.197999954223633,-25.516000747680664 31.052000045776367,-25.516000747680664 C31.052000045776367,-25.516000747680664 31.3439998626709,-25.516000747680664 31.3439998626709,-25.516000747680664 C32.46699905395508,-25.516000747680664 33.492000579833984,-26.00200080871582 34.42100143432617,-26.97599983215332 C35.08000183105469,-27.798999786376953 35.40999984741211,-28.621999740600586 35.40999984741211,-29.445999145507812 C35.40999984741211,-29.445999145507812 35.40999984741211,-29.895999908447266 35.40999984741211,-29.895999908447266 C35.40999984741211,-30.55500030517578 35.185001373291016,-31.243000030517578 34.736000061035156,-31.961999893188477 C33.85200119018555,-33.130001068115234 32.8120002746582,-33.7140007019043 31.61400032043457,-33.7140007019043 C31.61400032043457,-33.7140007019043 31.32200050354004,-33.7140007019043 31.32200050354004,-33.7140007019043 C30.288999557495117,-33.7140007019043 29.329999923706055,-33.25699996948242 28.44700050354004,-32.34400177001953z"></path></g><g opacity="0" transform="matrix(1,0,0,1,0,0)"><path fill="#605C55" fill-opacity="1" d=" M8.659000396728516,-16.464000701904297 C9.392000198364258,-18.1560001373291 10.920000076293945,-19.00200080871582 13.241000175476074,-19.00200080871582 C14.394000053405762,-19.00200080871582 15.659000396728516,-18.81399917602539 17.03700065612793,-18.440000534057617 C17.066999435424805,-16.118999481201172 17.082000732421875,-14.652000427246094 17.082000732421875,-14.038000106811523 C17.082000732421875,-12.75 16.82699966430664,-11.312999725341797 16.31800079345703,-9.72599983215332 C16.062999725341797,-9.081999778747559 15.815999984741211,-8.631999969482422 15.57699966430664,-8.378000259399414 C14.454000473022461,-7.49399995803833 13.142999649047852,-7.052999973297119 11.645999908447266,-7.052999973297119 C11.645999908447266,-7.052999973297119 11.60099983215332,-7.052999973297119 11.60099983215332,-7.052999973297119 C10.866999626159668,-7.052999973297119 10.246000289916992,-7.179999828338623 9.737000465393066,-7.434999942779541 C8.479000091552734,-8.079000473022461 7.849999904632568,-9.590999603271484 7.849999904632568,-11.972000122070312 C7.849999904632568,-13.633999824523926 8.119999885559082,-15.130999565124512 8.659000396728516,-16.464000701904297z M4.840000152587891,-23.02199935913086 C2.1449999809265137,-20.38599967956543 0.796999990940094,-16.68000030517578 0.796999990940094,-11.904000282287598 C0.796999990940094,-7.741000175476074 2.1449999809265137,-4.521999835968018 4.840000152587891,-2.246000051498413 C6.830999851226807,-0.7480000257492065 8.996000289916992,0 11.331999778747559,0 C11.331999778747559,0 11.937999725341797,0 11.937999725341797,0 C13.883999824523926,0 15.928000450134277,-0.5320000052452087 18.06999969482422,-1.5950000286102295 C18.06999969482422,-1.5950000286102295 18.114999771118164,-1.5720000267028809 18.114999771118164,-1.5720000267028809 C18.89299964904785,-0.7480000257492065 19.78499984741211,-0.3370000123977661 20.788000106811523,-0.3370000123977661 C21.520999908447266,-0.3370000123977661 22.216999053955078,-0.5619999766349792 22.875999450683594,-1.0110000371932983 C23.849000930786133,-1.8200000524520874 24.336000442504883,-2.740000009536743 24.336000442504883,-3.7730000019073486 C24.336000442504883,-4.521999835968018 24.277000427246094,-7.718999862670898 24.156999588012695,-13.36400032043457 C24.172000885009766,-14.35200023651123 24.179000854492188,-15.326000213623047 24.179000854492188,-16.284000396728516 C24.179000854492188,-17.256999969482422 24.163999557495117,-17.743999481201172 24.134000778198242,-17.743999481201172 C24.134000778198242,-19.18199920654297 23.834999084472656,-20.21500015258789 23.236000061035156,-20.8439998626709 C23.236000061035156,-20.8439998626709 23.257999420166016,-21.180999755859375 23.257999420166016,-21.180999755859375 C23.257999420166016,-22.60300064086914 22.576000213623047,-23.695999145507812 21.214000701904297,-24.459999084472656 C18.429000854492188,-25.523000717163086 15.786999702453613,-26.05500030517578 13.28600025177002,-26.05500030517578 C9.902000427246094,-26.05500030517578 7.085999965667725,-25.042999267578125 4.840000152587891,-23.02199935913086z"></path></g><g opacity="0" transform="matrix(1,0,0,1,0,0)"><path fill="#605C55" fill-opacity="1" d=" M-14.767999649047852,-24.841999053955078 C-15.63700008392334,-24.57200050354004 -16.655000686645508,-23.80900001525879 -17.822999954223633,-22.551000595092773 C-18.107999801635742,-22.191999435424805 -18.437000274658203,-21.742000579833984 -18.81100082397461,-21.202999114990234 C-19.440000534057617,-21.93600082397461 -20.083999633789062,-22.58099937438965 -20.743000030517578,-23.135000228881836 C-22.450000762939453,-24.30299949645996 -24.045000076293945,-24.886999130249023 -25.527000427246094,-24.886999130249023 C-25.527000427246094,-24.886999130249023 -26.538000106811523,-24.886999130249023 -26.538000106811523,-24.886999130249023 C-28.035999298095703,-24.886999130249023 -29.51799964904785,-24.37700080871582 -30.985000610351562,-23.358999252319336 C-30.985000610351562,-23.358999252319336 -31.052000045776367,-23.358999252319336 -31.052000045776367,-23.358999252319336 C-31.875999450683594,-24.332000732421875 -32.80400085449219,-24.819000244140625 -33.83700180053711,-24.819000244140625 C-33.83700180053711,-24.819000244140625 -34.016998291015625,-24.819000244140625 -34.016998291015625,-24.819000244140625 C-34.87099838256836,-24.819000244140625 -35.65599822998047,-24.482999801635742 -36.375,-23.80900001525879 C-37.09400177001953,-23.045000076293945 -37.45399856567383,-22.288999557495117 -37.45399856567383,-21.540000915527344 C-37.45399856567383,-21.19499969482422 -37.29600143432617,-15.722999572753906 -36.981998443603516,-5.120999813079834 C-36.981998443603516,-3.36899995803833 -36.79399871826172,-2.2829999923706055 -36.41999816894531,-1.8639999628067017 C-35.641998291015625,-0.7409999966621399 -34.67599868774414,-0.18000000715255737 -33.52299880981445,-0.18000000715255737 C-33.52299880981445,-0.18000000715255737 -33.2760009765625,-0.18000000715255737 -33.2760009765625,-0.18000000715255737 C-32.797000885009766,-0.18000000715255737 -32.279998779296875,-0.3070000112056732 -31.72599983215332,-0.5619999766349792 C-30.482999801635742,-1.371000051498413 -29.86199951171875,-2.38100004196167 -29.86199951171875,-3.5940001010894775 C-29.86199951171875,-3.5940001010894775 -29.86199951171875,-4.043000221252441 -29.86199951171875,-4.043000221252441 C-29.86199951171875,-4.236999988555908 -29.87700080871582,-4.38700008392334 -29.906999588012695,-4.492000102996826 C-29.87700080871582,-4.5970001220703125 -29.86199951171875,-4.745999813079834 -29.86199951171875,-4.940999984741211 C-29.86199951171875,-7.875999927520752 -29.547000885009766,-10.71399974822998 -28.917999267578125,-13.454000473022461 C-28.499000549316406,-14.920999526977539 -28.131999969482422,-15.895000457763672 -27.81800079345703,-16.374000549316406 C-27.354000091552734,-17.347000122070312 -26.78499984741211,-17.833999633789062 -26.111000061035156,-17.833999633789062 C-26.111000061035156,-17.833999633789062 -26.08799934387207,-17.833999633789062 -26.08799934387207,-17.833999633789062 C-25.25,-17.833999633789062 -24.509000778198242,-17.22800064086914 -23.864999771118164,-16.014999389648438 C-22.472000122070312,-13.095000267028809 -21.775999069213867,-9.26200008392334 -21.775999069213867,-4.514999866485596 C-21.775999069213867,-3.197000026702881 -21.64900016784668,-2.3359999656677246 -21.393999099731445,-1.9320000410079956 C-20.584999084472656,-0.6439999938011169 -19.566999435424805,0 -18.339000701904297,0 C-18.339000701904297,0 -18.136999130249023,0 -18.136999130249023,0 C-17.658000946044922,0 -17.141000747680664,-0.1340000033378601 -16.586999893188477,-0.40400001406669617 C-15.329000473022461,-1.2130000591278076 -14.701000213623047,-2.2090001106262207 -14.701000213623047,-3.3919999599456787 C-14.701000213623047,-4.364999771118164 -14.715999603271484,-5.525000095367432 -14.746000289916992,-6.873000144958496 C-14.746000289916992,-8.026000022888184 -14.604000091552734,-9.777999877929688 -14.319000244140625,-12.128999710083008 C-14.020000457763672,-13.956000328063965 -13.720000267028809,-15.25100040435791 -13.420000076293945,-16.014999389648438 C-12.821000099182129,-17.586999893188477 -12.32800006866455,-18.37299919128418 -11.937999725341797,-18.37299919128418 C-11.937999725341797,-18.37299919128418 -11.847999572753906,-18.37299919128418 -11.847999572753906,-18.37299919128418 C-11.817999839782715,-18.37299919128418 -11.744000434875488,-18.343000411987305 -11.62399959564209,-18.283000946044922 C-10.979999542236328,-17.5939998626709 -10.432999610900879,-16.54599952697754 -9.984000205993652,-15.138999938964844 C-8.996000289916992,-11.574999809265137 -8.50100040435791,-7.756999969482422 -8.50100040435791,-3.684000015258789 C-8.50100040435791,-3.684000015258789 -8.50100040435791,-3.6610000133514404 -8.50100040435791,-3.6610000133514404 C-8.50100040435791,-3.2709999084472656 -8.397000312805176,-2.799999952316284 -8.187000274658203,-2.246000051498413 C-7.422999858856201,-0.8679999709129333 -6.389999866485596,-0.18000000715255737 -5.086999893188477,-0.18000000715255737 C-5.086999893188477,-0.18000000715255737 -4.86299991607666,-0.18000000715255737 -4.86299991607666,-0.18000000715255737 C-4.488999843597412,-0.18000000715255737 -4.046999931335449,-0.26899999380111694 -3.5380001068115234,-0.4490000009536743 C-2.1449999809265137,-1.2269999980926514 -1.4490000009536743,-2.2679998874664307 -1.4490000009536743,-3.571000099182129 C-1.4490000009536743,-3.571000099182129 -1.4490000009536743,-4.177999973297119 -1.4490000009536743,-4.177999973297119 C-1.4490000009536743,-6.9029998779296875 -1.7259999513626099,-9.913000106811523 -2.2799999713897705,-13.206999778747559 C-2.6989998817443848,-15.317999839782715 -3.0810000896453857,-16.854000091552734 -3.424999952316284,-17.812000274658203 C-3.8589999675750732,-18.979999542236328 -4.315999984741211,-20.0049991607666 -4.795000076293945,-20.888999938964844 C-5.24399995803833,-21.697999954223633 -5.955999851226807,-22.58799934387207 -6.928999900817871,-23.562000274658203 C-8.456000328063965,-24.81999969482422 -9.99899959564209,-25.447999954223633 -11.555999755859375,-25.447999954223633 C-11.555999755859375,-25.447999954223633 -12.163000106811523,-25.447999954223633 -12.163000106811523,-25.447999954223633 C-13.001999855041504,-25.447999954223633 -13.869999885559082,-25.246000289916992 -14.767999649047852,-24.841999053955078z"></path></g></g><g transform="matrix(0.9999950528144836,0.003145417897030711,-0.003145417897030711,0.9999950528144836,144.9853515625,273.7641906738281)" opacity="0.810774452919188" style="display: block;"><g opacity="1" transform="matrix(1,0,0,1,1.3760000467300415,11.541000366210938)"><path stroke-linecap="round" stroke-linejoin="round" fill-opacity="0" stroke="#615D56" stroke-opacity="1" stroke-width="2px" d=" M-0.37599998712539673,-10.541000366210938 C-0.37599998712539673,-10.541000366210938 0.37599998712539673,10.541000366210938 0.37599998712539673,10.541000366210938"></path></g></g><g mask="url(#__lottie_element_82_1)" style="display: block;"><g clip-path="url(#__lottie_element_79)" transform="matrix(1,0,0,1,0,0)" opacity="1"><g transform="matrix(1,0,0,1,182.6750030517578,211.5733642578125)" opacity="1" style="display: block;"><g opacity="1" transform="matrix(1,0,0,1,42.952999114990234,42.10599899291992)"><path stroke-linecap="round" stroke-linejoin="round" fill-opacity="0" stroke="#615D56" stroke-opacity="1" stroke-width="6px" d=" M-27.952999114990234,-24.847000122070312 C-27.952999114990234,-24.847000122070312 -13.647000312805176,-27.106000900268555 -0.09399999678134918,-26.35300064086914 C13.458999633789062,-25.600000381469727 24.187999725341797,-27.106000900268555 24.187999725341797,-27.106000900268555 C24.187999725341797,-27.106000900268555 27.952999114990234,-14.494000434875488 26.259000778198242,7.906000137329102 C25.83099937438965,13.5649995803833 22.8700008392334,26.165000915527344 22.8700008392334,26.165000915527344 C22.8700008392334,26.165000915527344 1.3730000257492065,14.145999908447266 1.3730000257492065,14.145999908447266 C1.3730000257492065,14.145999908447266 -22.493999481201172,27.106000900268555 -22.493999481201172,27.106000900268555 C-21.95599937438965,9.340999603271484 -23.867000579833984,-7.959000110626221 -27.952999114990234,-24.847000122070312z"></path></g></g><g transform="matrix(0.7264060378074646,0.6872658133506775,-0.6872658133506775,0.7264060378074646,203.63938903808594,233.03741455078125)" opacity="1" style="display: block;"><g opacity="1" transform="matrix(1,0,0,1,23.94099998474121,18.218000411987305)"><path stroke-linecap="round" stroke-linejoin="round" fill-opacity="0" stroke="#615D56" stroke-opacity="1" stroke-width="6px" d=" M-27.922000885009766,-2.561000108718872 C-23.15399932861328,1.402999997138977 -15.404000282287598,4.1529998779296875 -9.440999984741211,-1.7769999504089355"></path></g></g><g transform="matrix(0.6644303202629089,-0.7473502159118652,0.7473502159118652,0.6644303202629089,227.1356201171875,250.32626342773438)" opacity="1" style="display: block;"><g opacity="1" transform="matrix(1,0,0,1,23.56399917602539,18.29400062561035)"><path stroke-linecap="round" stroke-linejoin="round" fill-opacity="0" stroke="#615D56" stroke-opacity="1" stroke-width="6px" d=" M-8.814000129699707,2.9769999980926514 C-8.814000129699707,2.9769999980926514 0.8579999804496765,7.690999984741211 10.241000175476074,0.734000027179718"></path></g></g><g transform="matrix(1,0,0,1,213.88101196289062,234.20436096191406)" opacity="1" style="display: block;"><g opacity="1" transform="matrix(1,0,0,1,3.4730000495910645,3.4560000896453857)"><path fill="#615D56" fill-opacity="1" d=" M0,2.5 C3.2170000076293945,2.5 3.2230000495910645,-2.5 0,-2.5 C-3.2170000076293945,-2.5 -3.2230000495910645,2.5 0,2.5z"></path></g><g opacity="1" transform="matrix(1,0,0,1,20.413999557495117,2.75)"><path fill="#615D56" fill-opacity="1" d=" M0,2.5 C3.2170000076293945,2.5 3.2230000495910645,-2.5 0,-2.5 C-3.2170000076293945,-2.5 -3.2230000495910645,2.5 0,2.5z"></path></g><g opacity="1" transform="matrix(1,0,0,1,12.175000190734863,6.7820000648498535)"><path fill="#615D56" fill-opacity="1" d=" M-4.076000213623047,1.3550000190734863 C-3.759000062942505,1.6139999628067017 -3.437000036239624,1.88100004196167 -3.0799999237060547,2.0859999656677246 C-2.7230000495910645,2.2909998893737793 -2.3259999752044678,2.447999954223633 -1.944000005722046,2.5899999141693115 C-1.3569999933242798,2.808000087738037 -0.699999988079071,2.8929998874664307 -0.07999999821186066,2.9179999828338623 C0.13099999725818634,2.9260001182556152 0.3409999907016754,2.9159998893737793 0.550000011920929,2.8929998874664307 C0.9660000205039978,2.8469998836517334 1.3940000534057617,2.8010001182556152 1.7999999523162842,2.687000036239624 C2.4019999504089355,2.5179998874664307 3.0139999389648438,2.257999897003174 3.5250000953674316,1.8910000324249268 C3.815999984741211,1.7339999675750732 4.050000190734863,1.5190000534057617 4.22599983215332,1.246999979019165 C4.447000026702881,1.00600004196167 4.5960001945495605,0.722000002861023 4.673999786376953,0.3970000147819519 C4.8379998207092285,-0.20100000500679016 4.763999938964844,-0.9980000257492065 4.421999931335449,-1.5290000438690186 C4.077000141143799,-2.062999963760376 3.565000057220459,-2.5329999923706055 2.927000045776367,-2.677999973297119 C2.306999921798706,-2.819999933242798 1.5399999618530273,-2.812999963760376 1.0010000467300415,-2.4260001182556152 C0.7839999794960022,-2.2709999084472656 0.5550000071525574,-2.1410000324249268 0.3100000023841858,-2.0350000858306885 C0.3100000023841858,-2.0350000858306885 0.9079999923706055,-2.2869999408721924 0.9079999923706055,-2.2869999408721924 C0.5989999771118164,-2.1600000858306885 0.2809999883174896,-2.0739998817443848 -0.04899999871850014,-2.0260000228881836 C0.17299999296665192,-2.055999994277954 0.39500001072883606,-2.0859999656677246 0.6159999966621399,-2.115000009536743 C0.2619999945163727,-2.069999933242798 -0.09000000357627869,-2.069999933242798 -0.4440000057220459,-2.114000082015991 C-0.22300000488758087,-2.0840001106262207 -0.0010000000474974513,-2.053999900817871 0.2199999988079071,-2.0239999294281006 C-0.10999999940395355,-2.071000099182129 -0.42899999022483826,-2.1549999713897705 -0.7379999756813049,-2.2799999713897705 C-0.7379999756813049,-2.2799999713897705 -0.14100000262260437,-2.0280001163482666 -0.14100000262260437,-2.0280001163482666 C-0.42800000309944153,-2.1489999294281006 -0.6940000057220459,-2.3010001182556152 -0.9430000185966492,-2.48799991607666 C-0.7739999890327454,-2.3580000400543213 -0.6050000190734863,-2.2279999256134033 -0.43700000643730164,-2.0969998836517334 C-0.47200000286102295,-2.124000072479248 -0.5059999823570251,-2.1519999504089355 -0.5400000214576721,-2.180999994277954 C-0.7670000195503235,-2.4240000247955322 -1.034999966621399,-2.5969998836517334 -1.3450000286102295,-2.697000026702881 C-1.6430000066757202,-2.8540000915527344 -1.9639999866485596,-2.9260001182556152 -2.308000087738037,-2.9130001068115234 C-2.9210000038146973,-2.9130001068115234 -3.6540000438690186,-2.640000104904175 -4.076000213623047,-2.180999994277954 C-4.513000011444092,-1.7039999961853027 -4.8379998207092285,-1.0789999961853027 -4.808000087738037,-0.4129999876022339 C-4.78000020980835,0.210999995470047 -4.579999923706055,0.9419999718666077 -4.076000213623047,1.3550000190734863z"></path></g></g></g></g><g transform="matrix(1,0,0,1,175.25,320)" opacity="1" style="display: block;"></g><g transform="matrix(0.9999971389770508,0.002402865095064044,-0.002402865095064044,0.9999971389770508,226,238)" opacity="1" style="display: block;"><g opacity="1" transform="matrix(1,0,0,1,0,0)"><path stroke-linecap="round" stroke-linejoin="round" fill-opacity="0" stroke="#605C55" stroke-opacity="1" stroke-width="6px" d=" M63.5,-94.5 C60.62099838256836,-102.49800109863281 -56,-96 -60,-92 C-62.76100158691406,-89.23899841308594 -68.5,-11 -63,-1 C-59.236000061035156,5.8429999351501465 57.5,2.5 63,-3 C66.53600311279297,-6.535999774932861 72.5,-69.5 63.5,-94.5z"></path></g></g><g transform="matrix(0,0,0,0,178.11099243164062,159.11099243164062)" opacity="1" style="display: none;"><g opacity="1" transform="matrix(1,0,0,1,-39.888999938964844,-64.88899993896484)"><path fill="#605C55" fill-opacity="1" d=" M0,-4.611499786376953 C2.545086622238159,-4.611499786376953 4.611499786376953,-2.545086622238159 4.611499786376953,0 C4.611499786376953,2.545086622238159 2.545086622238159,4.611499786376953 0,4.611499786376953 C-2.545086622238159,4.611499786376953 -4.611499786376953,2.545086622238159 -4.611499786376953,0 C-4.611499786376953,-2.545086622238159 -2.545086622238159,-4.611499786376953 0,-4.611499786376953z"></path></g></g><g transform="matrix(0,0,0,0,178.11099243164062,159.11099243164062)" opacity="1" style="display: none;"><g opacity="1" transform="matrix(1,0,0,1,-39.888999938964844,-64.88899993896484)"><path fill="#605C55" fill-opacity="1" d=" M0,-4.611499786376953 C2.545086622238159,-4.611499786376953 4.611499786376953,-2.545086622238159 4.611499786376953,0 C4.611499786376953,2.545086622238159 2.545086622238159,4.611499786376953 0,4.611499786376953 C-2.545086622238159,4.611499786376953 -4.611499786376953,2.545086622238159 -4.611499786376953,0 C-4.611499786376953,-2.545086622238159 -2.545086622238159,-4.611499786376953 0,-4.611499786376953z"></path></g></g><g transform="matrix(0,0,0,0,274.1109924316406,168.11099243164062)" opacity="1" style="display: none;"><g opacity="1" transform="matrix(1,0,0,1,-39.888999938964844,-64.88899993896484)"><path fill="#605C55" fill-opacity="1" d=" M0,-4.611499786376953 C2.545086622238159,-4.611499786376953 4.611499786376953,-2.545086622238159 4.611499786376953,0 C4.611499786376953,2.545086622238159 2.545086622238159,4.611499786376953 0,4.611499786376953 C-2.545086622238159,4.611499786376953 -4.611499786376953,2.545086622238159 -4.611499786376953,0 C-4.611499786376953,-2.545086622238159 -2.545086622238159,-4.611499786376953 0,-4.611499786376953z"></path></g></g><g transform="matrix(0,0,0,0,274.1109924316406,168.11099243164062)" opacity="1" style="display: none;"><g opacity="1" transform="matrix(1,0,0,1,-39.888999938964844,-64.88899993896484)"><path fill="#605C55" fill-opacity="1" d=" M0,-4.611499786376953 C2.545086622238159,-4.611499786376953 4.611499786376953,-2.545086622238159 4.611499786376953,0 C4.611499786376953,2.545086622238159 2.545086622238159,4.611499786376953 0,4.611499786376953 C-2.545086622238159,4.611499786376953 -4.611499786376953,2.545086622238159 -4.611499786376953,0 C-4.611499786376953,-2.545086622238159 -2.545086622238159,-4.611499786376953 0,-4.611499786376953z"></path></g></g><g transform="matrix(0,0,0,0,230.11099243164062,150.11099243164062)" opacity="1" style="display: none;"><g opacity="1" transform="matrix(1,0,0,1,-39.888999938964844,-64.88899993896484)"><path fill="#605C55" fill-opacity="1" d=" M0,-4.611499786376953 C2.545086622238159,-4.611499786376953 4.611499786376953,-2.545086622238159 4.611499786376953,0 C4.611499786376953,2.545086622238159 2.545086622238159,4.611499786376953 0,4.611499786376953 C-2.545086622238159,4.611499786376953 -4.611499786376953,2.545086622238159 -4.611499786376953,0 C-4.611499786376953,-2.545086622238159 -2.545086622238159,-4.611499786376953 0,-4.611499786376953z"></path></g></g><g transform="matrix(0,0,0,0,230.11099243164062,150.11099243164062)" opacity="1" style="display: none;"><g opacity="1" transform="matrix(1,0,0,1,-39.888999938964844,-64.88899993896484)"><path fill="#605C55" fill-opacity="1" d=" M0,-4.611499786376953 C2.545086622238159,-4.611499786376953 4.611499786376953,-2.545086622238159 4.611499786376953,0 C4.611499786376953,2.545086622238159 2.545086622238159,4.611499786376953 0,4.611499786376953 C-2.545086622238159,4.611499786376953 -4.611499786376953,2.545086622238159 -4.611499786376953,0 C-4.611499786376953,-2.545086622238159 -2.545086622238159,-4.611499786376953 0,-4.611499786376953z"></path></g></g></g></g></svg>