<svg xmlns="http://www.w3.org/2000/svg" xmlns:xlink="http://www.w3.org/1999/xlink" viewBox="0 0 497 530" width="497" height="530" preserveAspectRatio="xMidYMid meet" style="width: 100%; height: 100%; transform: translate3d(0px, 0px, 0px); content-visibility: visible;"><defs><clipPath id="__lottie_element_32"><rect width="497" height="530" x="0" y="0"></rect></clipPath></defs><g clip-path="url(#__lottie_element_32)"><g transform="matrix(1,0,0,1,252,248.5)" opacity="1" style="display: none;"><g opacity="1" transform="matrix(1,0,0,1,0,0)"><path stroke-linecap="round" stroke-linejoin="round" fill-opacity="0" stroke="#605C55" stroke-opacity="1" stroke-width="6px" d="M0 0"></path></g></g><g transform="matrix(1,0,0,1,266.5,425)" opacity="1" style="display: none;"><g opacity="1" transform="matrix(1,0,0,1,0,0)"><path stroke-linecap="round" stroke-linejoin="round" fill-opacity="0" stroke="#605C55" stroke-opacity="1" stroke-width="6px" d="M0 0"></path></g></g><g transform="matrix(1,0,0,1,266.5,425)" opacity="1" style="display: block;"><g opacity="1" transform="matrix(1,0,0,1,0,0)"><path stroke-linecap="round" stroke-linejoin="round" fill-opacity="0" stroke="#605C55" stroke-opacity="1" stroke-width="6px" d=" M-103.98200225830078,-71.61199951171875 C-106.09100341796875,-71.62999725341797 -108.4010009765625,-71.57599639892578 -110.91000366210938,-71.4219970703125"></path></g></g><g transform="matrix(1,0,0,1,461,425)" opacity="1" style="display: none;"><g opacity="1" transform="matrix(1,0,0,1,0,0)"><path stroke-linecap="round" stroke-linejoin="round" fill-opacity="0" stroke="#605C55" stroke-opacity="1" stroke-width="6px" d="M0 0"></path></g></g><g transform="matrix(1,0,0,1,461,425)" opacity="1" style="display: block;"><g opacity="1" transform="matrix(1,0,0,1,0,0)"><path stroke-linecap="round" stroke-linejoin="round" fill-opacity="0" stroke="#605C55" stroke-opacity="1" stroke-width="6px" d=" M-137.07200622558594,-68.72599792480469 C-134.40699768066406,-68.63099670410156 -131.54299926757812,-68.13700103759766 -128.52999877929688,-67.06600189208984"></path></g></g><g transform="matrix(1,0,0,1,248.5,265)" opacity="1" style="display: none;"><g opacity="1" transform="matrix(1,0,0,1,0,0)"><path stroke-linecap="round" stroke-linejoin="round" fill-opacity="0" stroke="#605C55" stroke-opacity="1" stroke-width="6px" d="M0 0"></path></g></g><g transform="matrix(1,0,0,1,173.5,265.8931579589844)" opacity="1" style="display: block;"><g opacity="1" transform="matrix(1,0,0,1,74.11299896240234,57.7599983215332)"><path fill="#FBDA5F" fill-opacity="1" d=" M-61.07240295410156,-25.478580474853516 C-61.306400299072266,-3.1965811252593994 -60.33952713012695,10.883312225341797 -58.23652648925781,33.88731384277344 C-57.92252731323242,37.325313568115234 -55.161529541015625,40.049312591552734 -51.718528747558594,40.31331253051758 C-17.682527542114258,42.924312591552734 21.313167572021484,43.39402770996094 54.28016662597656,40.71603012084961 C57.72916793823242,40.43602752685547 60.458168029785156,37.67902755737305 60.762168884277344,34.23202896118164 C62.30116653442383,16.805028915405273 62.356292724609375,8.188135147094727 60.866294860839844,-8.831864356994629 C60.55629348754883,-12.371864318847656 57.68229293823242,-15.14786434173584 54.13329315185547,-15.331864356994629 C35.00029373168945,-16.323863983154297 13.737000465393066,-17.18600082397461 -0.7110000252723694,-16.555999755859375 C-0.7110000252723694,-16.555999755859375 -6.751999855041504,-28.775999069213867 -6.751999855041504,-28.775999069213867 C-8.140999794006348,-31.584999084472656 -10.979999542236328,-33.382999420166016 -14.11400032043457,-33.45600128173828 C-27.15399932861328,-33.7599983215332 -42.24340057373047,-33.64558029174805 -54.65439987182617,-32.45158004760742 C-58.25440216064453,-32.1055793762207 -61.034400939941406,-29.0955810546875 -61.07240295410156,-25.478580474853516z"></path><path stroke-linecap="round" stroke-linejoin="round" fill-opacity="0" stroke="#615D56" stroke-opacity="1" stroke-width="6px" d=" M-61.07240295410156,-25.478580474853516 C-61.306400299072266,-3.1965811252593994 -60.33952713012695,10.883312225341797 -58.23652648925781,33.88731384277344 C-57.92252731323242,37.325313568115234 -55.161529541015625,40.049312591552734 -51.718528747558594,40.31331253051758 C-17.682527542114258,42.924312591552734 21.313167572021484,43.39402770996094 54.28016662597656,40.71603012084961 C57.72916793823242,40.43602752685547 60.458168029785156,37.67902755737305 60.762168884277344,34.23202896118164 C62.30116653442383,16.805028915405273 62.356292724609375,8.188135147094727 60.866294860839844,-8.831864356994629 C60.55629348754883,-12.371864318847656 57.68229293823242,-15.14786434173584 54.13329315185547,-15.331864356994629 C35.00029373168945,-16.323863983154297 13.737000465393066,-17.18600082397461 -0.7110000252723694,-16.555999755859375 C-0.7110000252723694,-16.555999755859375 -6.751999855041504,-28.775999069213867 -6.751999855041504,-28.775999069213867 C-8.140999794006348,-31.584999084472656 -10.979999542236328,-33.382999420166016 -14.11400032043457,-33.45600128173828 C-27.15399932861328,-33.7599983215332 -42.24340057373047,-33.64558029174805 -54.65439987182617,-32.45158004760742 C-58.25440216064453,-32.1055793762207 -61.034400939941406,-29.0955810546875 -61.07240295410156,-25.478580474853516z"></path></g><g opacity="1" transform="matrix(1,0,0,1,112.3949966430664,78.10900115966797)"><path fill="#615D56" fill-opacity="1" d=" M10.164999961853027,-9.498000144958496 C10.164999961853027,-9.498000144958496 10.164999961853027,9.27299976348877 10.164999961853027,9.27299976348877 C10.164999961853027,9.897000312805176 9.463000297546387,10.263999938964844 8.949999809265137,9.907999992370605 C8.949999809265137,9.907999992370605 2.260999917984009,4.557000160217285 2.260999917984009,4.557000160217285 C1.968000054359436,4.353000164031982 1.8589999675750732,3.9700000286102295 2.002000093460083,3.6429998874664307 C2.002000093460083,3.6429998874664307 2.937999963760376,1.4869999885559082 2.937999963760376,1.4869999885559082 C3.0209999084472656,1.2960000038146973 2.802000045776367,1.1150000095367432 2.630000114440918,1.2330000400543213 C2.630000114440918,1.2330000400543213 -8.95199966430664,9.916999816894531 -8.95199966430664,9.916999816894531 C-9.46500015258789,10.270999908447266 -10.164999961853027,9.902999877929688 -10.164999961853027,9.279999732971191 C-10.164999961853027,9.279999732971191 -10.164999961853027,-9.498000144958496 -10.164999961853027,-9.498000144958496 C-10.164999961853027,-9.925000190734863 -9.817999839782715,-10.270999908447266 -9.390999794006348,-10.270999908447266 C-9.390999794006348,-10.270999908447266 9.390999794006348,-10.270999908447266 9.390999794006348,-10.270999908447266 C9.819000244140625,-10.270999908447266 10.164999961853027,-9.925000190734863 10.164999961853027,-9.498000144958496z"></path></g></g><g transform="matrix(0.9711790680885315,0.23835112154483795,-0.23835112154483795,0.9711790680885315,294.1982421875,155.01983642578125)" opacity="1" style="display: block;"><g opacity="1" transform="matrix(1,0,0,1,46.79999923706055,35.22200012207031)"><path stroke-linecap="round" stroke-linejoin="round" fill-opacity="0" stroke="#615D56" stroke-opacity="1" stroke-width="6px" d=" M13.190999984741211,7.866000175476074 C13.190999984741211,7.866000175476074 13.190999984741211,-20.222999572753906 13.190999984741211,-20.222999572753906 C3.0999999046325684,-16.05699920654297 -5.861000061035156,-11.833999633789062 -13.190999984741211,-7.531000137329102 C-13.190999984741211,-7.531000137329102 -13.190999984741211,20.222999572753906 -13.190999984741211,20.222999572753906"></path></g><g opacity="1" transform="matrix(1,0,0,1,24.606000900268555,57.39799880981445)"><path stroke-linecap="round" stroke-linejoin="round" fill-opacity="0" stroke="#615D56" stroke-opacity="1" stroke-width="6px" d=" M9.045000076293945,-1.3760000467300415 C9.605999946594238,2.309999942779541 6.011000156402588,5.914999961853027 1.0149999856948853,6.675000190734863 C-3.9800000190734863,7.434999942779541 -8.484999656677246,5.061999797821045 -9.045000076293945,1.3760000467300415 C-9.605999946594238,-2.309999942779541 -6.011000156402588,-5.914999961853027 -1.0160000324249268,-6.675000190734863 C3.9800000190734863,-7.434999942779541 8.484000205993652,-5.061999797821045 9.045000076293945,-1.3760000467300415z"></path></g><g opacity="1" transform="matrix(1,0,0,1,50.834999084472656,45.04499816894531)"><path stroke-linecap="round" stroke-linejoin="round" fill-opacity="0" stroke="#615D56" stroke-opacity="1" stroke-width="6px" d=" M9.244000434875488,-1.406000018119812 C9.805000305175781,2.2799999713897705 6.120999813079834,5.896999835968018 1.0149999856948853,6.673999786376953 C-4.090000152587891,7.451000213623047 -8.684000015258789,5.0920000076293945 -9.244999885559082,1.406000018119812 C-9.805000305175781,-2.2809998989105225 -6.120999813079834,-5.8979997634887695 -1.0160000324249268,-6.673999786376953 C4.090000152587891,-7.451000213623047 8.682999610900879,-5.0920000076293945 9.244000434875488,-1.406000018119812z"></path></g><g opacity="1" transform="matrix(1,0,0,1,46.51100158691406,29.729999542236328)"><path stroke-linecap="round" stroke-linejoin="round" fill-opacity="0" stroke="#615D56" stroke-opacity="1" stroke-width="6px" d=" M-12.685999870300293,5.965000152587891 C-3.927000045776367,0.37700000405311584 5.135000228881836,-2.7939999103546143 12.685999870300293,-5.965000152587891"></path></g></g><g transform="matrix(1.099929928779602,0,0,1.099929928779602,91.87080383300781,260.46478271484375)" opacity="1" style="display: block;"><g opacity="1" transform="matrix(1,0,0,1,39.527000427246094,34.93199920654297)"><path stroke-linecap="round" stroke-linejoin="round" fill-opacity="0" stroke="#615D56" stroke-opacity="1" stroke-width="6px" d=" M19.009000778198242,12.842000007629395 C9.321000099182129,16.52899932861328 -0.8420000076293945,18.684999465942383 -11.390000343322754,19.599000930786133 C-15.234000205993652,19.93199920654297 -18.812000274658203,17.5939998626709 -20.030000686645508,13.932999610900879 C-21.966999053955078,8.111000061035156 -23.304000854492188,2.1570000648498535 -24.041000366210938,-3.930000066757202 C-24.527000427246094,-7.940999984741211 -22.02400016784668,-11.73799991607666 -18.14299964904785,-12.864999771118164 C-8.302000045776367,-15.723999977111816 1.503999948501587,-17.922000885009766 11.272000312805176,-19.3799991607666 C14.96500015258789,-19.93199920654297 18.614999771118164,-17.933000564575195 20.066999435424805,-14.491999626159668 C22.79400062561035,-8.029000282287598 24.301000595092773,-1.5850000381469727 24.44700050354004,4.839000225067139 C24.527000427246094,8.394000053405762 22.332000732421875,11.57699966430664 19.009000778198242,12.842000007629395z"></path></g><g opacity="1" transform="matrix(0.9999710917472839,0,0,0.9999710917472839,40.49100112915039,35.525001525878906)"><path stroke-linecap="round" stroke-linejoin="round" fill-opacity="0" stroke="#615D56" stroke-opacity="1" stroke-width="6px" d=" M4.559000015258789,-1.4769999980926514 C4.559000015258789,-1.4769999980926514 -4.559000015258789,-4.770999908447266 -4.559000015258789,-4.770999908447266 C-4.559000015258789,-4.770999908447266 -2.8519999980926514,4.770999908447266 -2.8519999980926514,4.770999908447266 C-2.8519999980926514,4.770999908447266 4.559000015258789,-1.4769999980926514 4.559000015258789,-1.4769999980926514z"></path></g></g><g transform="matrix(1,0,0,1,116.1346664428711,177.70367431640625)" opacity="1" style="display: block;"><g opacity="1" transform="matrix(1,0,0,1,31.06800079345703,28.663999557495117)"><path stroke-linecap="round" stroke-linejoin="round" fill-opacity="0" stroke="#615D56" stroke-opacity="1" stroke-width="6px" d=" M3.188999891281128,12.53499984741211 C3.188999891281128,12.53499984741211 3.121999979019165,12.550999641418457 3.121999979019165,12.550999641418457 C-1.2990000247955322,13.663000106811523 -5.826000213623047,10.956999778747559 -6.938000202178955,6.5370001792907715 C-6.938000202178955,6.5370001792907715 -9.204000473022461,-2.4760000705718994 -9.204000473022461,-2.4760000705718994 C-10.315999984741211,-6.896999835968018 -7.610000133514404,-11.42300033569336 -3.188999891281128,-12.53499984741211 C-3.188999891281128,-12.53499984741211 -3.121999979019165,-12.550999641418457 -3.121999979019165,-12.550999641418457 C1.2990000247955322,-13.663000106811523 5.826000213623047,-10.956999778747559 6.938000202178955,-6.535999774932861 C6.938000202178955,-6.535999774932861 9.204000473022461,2.4760000705718994 9.204000473022461,2.4760000705718994 C10.315999984741211,6.895999908447266 7.610000133514404,11.42300033569336 3.188999891281128,12.53499984741211z"></path></g><g opacity="1" transform="matrix(1,0,0,1,33.47999954223633,41.130001068115234)"><path stroke-linecap="round" stroke-linejoin="round" fill-opacity="0" stroke="#615D56" stroke-opacity="1" stroke-width="6px" d=" M16.10700035095215,-11.946000099182129 C18.479999542236328,-2.5139999389648438 12.638999938964844,7.160999774932861 3.128000020980835,9.553999900817871 C-6.382999897003174,11.946000099182129 -16.10700035095215,6.186999797821045 -18.479999542236328,-3.244999885559082"></path></g><g opacity="1" transform="matrix(1,0,0,1,37.72999954223633,55.143001556396484)"><path stroke-linecap="round" stroke-linejoin="round" fill-opacity="0" stroke="#615D56" stroke-opacity="1" stroke-width="6px" d=" M-1.0019999742507935,-3.9820001125335693 C-1.0019999742507935,-3.9820001125335693 1.0019999742507935,3.9820001125335693 1.0019999742507935,3.9820001125335693"></path></g><g opacity="1" transform="matrix(1,0,0,1,38.9119987487793,59.84199905395508)"><path stroke-linecap="round" stroke-linejoin="round" fill-opacity="0" stroke="#615D56" stroke-opacity="1" stroke-width="6px" d=" M-6.505000114440918,1.6369999647140503 C-6.505000114440918,1.6369999647140503 6.505000114440918,-1.6369999647140503 6.505000114440918,-1.6369999647140503"></path></g></g><g transform="matrix(1,0,0,1,311.9397888183594,248.50961303710938)" opacity="1" style="display: block;"><g opacity="1" transform="matrix(1,0,0,1,11.855999946594238,16.746000289916992)"><path fill="#615D56" fill-opacity="1" d=" M7.873000144958496,-16.14299964904785 C7.873000144958496,-16.14299964904785 7.894999980926514,-16.136999130249023 7.894999980926514,-16.136999130249023 C9.88599967956543,-15.548999786376953 10.989999771118164,-13.550999641418457 11.208000183105469,-10.142000198364258 C11.604999542236328,-5.590000152587891 11.494000434875488,1.6790000200271606 10.876999855041504,11.666000366210938 C10.836999893188477,12.880000114440918 10.760000228881836,13.675000190734863 10.64900016784668,14.050000190734863 C10.291999816894531,15.26200008392334 9.385000228881836,16.054000854492188 7.927999973297119,16.424999237060547 C7.3460001945495605,16.496000289916992 6.834000110626221,16.46500015258789 6.388999938964844,16.333999633789062 C5.248000144958496,15.996999740600586 4.4670000076293945,15.154999732971191 4.047999858856201,13.803999900817871 C3.941999912261963,13.545999526977539 3.9820001125335693,12.234000205993652 4.166999816894531,9.866999626159668 C4.23199987411499,8.675999641418457 4.248000144958496,8.074999809265137 4.2230000495910645,8.067000389099121 C4.2230000495910645,8.067000389099121 4.179999828338623,8.053999900817871 4.179999828338623,8.053999900817871 C3.691999912261963,7.910999774932861 1.2799999713897705,7.320000171661377 -3.059999942779541,6.281000137329102 C-3.132999897003174,6.320000171661377 -3.9040000438690186,7.546000003814697 -5.370999813079834,9.956999778747559 C-5.868000030517578,10.657999992370605 -6.560999870300293,11.119000434875488 -7.460000038146973,11.338000297546387 C-8.065999984741211,11.446999549865723 -8.626999855041504,11.425000190734863 -9.142999649047852,11.272000312805176 C-10.241999626159668,10.947999954223633 -11.003999710083008,10.170000076293945 -11.428000450134277,8.9399995803833 C-11.605999946594238,8.267000198364258 -11.605999946594238,7.624000072479248 -11.425999641418457,7.011000156402588 C-11.196999549865723,6.23199987411499 -8.338000297546387,1.6510000228881836 -2.8519999980926514,-6.732999801635742 C0.210999995470047,-11.26200008392334 2.555999994277954,-14.14900016784668 4.179999828338623,-15.395000457763672 C5.443999767303467,-16.24799919128418 6.676000118255615,-16.496000289916992 7.873000144958496,-16.14299964904785z M0.8100000023841858,0.09099999815225601 C0.8130000233650208,0.13699999451637268 0.8100000023841858,0.16699999570846558 0.8059999942779541,0.18000000715255737 C2.8340001106262207,0.6420000195503235 4.061999797821045,0.9380000233650208 4.494999885559082,1.065000057220459 C4.517000198364258,1.0410000085830688 4.5289998054504395,1.0230000019073486 4.533999919891357,1.0089999437332153 C4.6020002365112305,-1.5290000438690186 4.625,-3.6559998989105225 4.6020002365112305,-5.373000144958496 C4.6020002365112305,-5.373000144958496 4.581999778747559,-5.379000186920166 4.581999778747559,-5.379000186920166 C4.5269999504089355,-5.395999908447266 3.553999900817871,-4.001999855041504 1.6679999828338623,-1.1990000009536743 C1.1799999475479126,-0.41999998688697815 0.8939999938011169,0.009999999776482582 0.8100000023841858,0.09099999815225601z"></path></g><g opacity="1" transform="matrix(1,0,0,1,36.50299835205078,21.1560001373291)"><path fill="#615D56" fill-opacity="1" d=" M-0.5049999952316284,-15.842000007629395 C0.734000027179718,-15.47599983215332 1.5269999504089355,-14.576000213623047 1.8760000467300415,-13.142000198364258 C1.968999981880188,-12.583999633789062 1.9390000104904175,-12.04800033569336 1.7869999408721924,-11.532999992370605 C1.7869999408721924,-11.532999992370605 0.7960000038146973,-8.17199993133545 0.7960000038146973,-8.17199993133545 C6.447000026702881,-6.502999782562256 9.961999893188477,-3.5950000286102295 11.342000007629395,0.550000011920929 C11.991000175476074,2.7090001106262207 11.979999542236328,4.922999858856201 11.312000274658203,7.191999912261963 C11.312000274658203,7.191999912261963 11.218000411987305,7.505000114440918 11.218000411987305,7.505000114440918 C10.454000473022461,10.093999862670898 8.890000343322754,12.159000396728516 6.5279998779296875,13.70300006866455 C5.103000164031982,14.47700023651123 4.026000022888184,14.946999549865723 3.296999931335449,15.109000205993652 C-0.5479999780654907,16.093000411987305 -4.789999961853027,15.89900016784668 -9.425000190734863,14.531000137329102 C-9.425000190734863,14.531000137329102 -9.467000007629395,14.519000053405762 -9.467000007629395,14.519000053405762 C-10.859000205993652,14.107999801635742 -11.687999725341797,13.121999740600586 -11.954000473022461,11.560999870300293 C-11.991000175476074,11.020000457763672 -11.975000381469727,10.630999565124512 -11.904999732971191,10.394000053405762 C-8.0600004196167,-2.4240000247955322 -5.663000106811523,-10.440999984741211 -4.7129998207092285,-13.656000137329102 C-4.486999988555908,-14.42199993133545 -3.943000078201294,-15.064000129699707 -3.078000068664551,-15.579000473022461 C-2.2109999656677246,-16.0049991607666 -1.3539999723434448,-16.093000411987305 -0.5049999952316284,-15.842000007629395z M-1.1890000104904175,-1.6059999465942383 C-2.1600000858306885,1.6330000162124634 -2.9040000438690186,4.130000114440918 -3.4230000972747803,5.883999824523926 C-3.4230000972747803,5.883999824523926 -4.248000144958496,8.682999610900879 -4.248000144958496,8.682999610900879 C-3.7899999618530273,8.817999839782715 -2.6519999504089355,8.887999534606934 -0.8379999995231628,8.895000457763672 C1.25600004196167,8.770999908447266 2.73799991607666,8.262999534606934 3.6080000400543213,7.36899995803833 C4.10699987411499,6.910999774932861 4.486999988555908,6.236999988555908 4.75,5.34499979019165 C5.3420000076293945,3.3410000801086426 4.89900016784668,1.7649999856948853 3.421999931335449,0.6169999837875366 C2.3010001182556152,-0.30399999022483826 0.8230000138282776,-1.034999966621399 -1.0149999856948853,-1.5770000219345093 C-1.0149999856948853,-1.5770000219345093 -1.1890000104904175,-1.6059999465942383 -1.1890000104904175,-1.6059999465942383z"></path></g><g opacity="1" transform="matrix(1,0,0,1,61.957000732421875,32.999000549316406)"><path fill="#615D56" fill-opacity="1" d=" M4.035999774932861,-12.177000045776367 C4.035999774932861,-12.177000045776367 4.265999794006348,-12.109000205993652 4.265999794006348,-12.109000205993652 C6.980999946594238,-11.307999610900879 9.428999900817871,-9.60099983215332 11.607000350952148,-6.991000175476074 C12.401000022888184,-5.939000129699707 12.63700008392334,-4.86299991607666 12.312999725341797,-3.763000011444092 C11.960000038146973,-2.565999984741211 11.067000389099121,-1.777999997138977 9.640000343322754,-1.3980000019073486 C9.043999671936035,-1.3309999704360962 8.510000228881836,-1.3680000305175781 8.03600025177002,-1.5080000162124634 C7.271999835968018,-1.7339999675750732 6.586999893188477,-2.260999917984009 5.985000133514404,-3.0899999141693115 C4.817999839782715,-4.372000217437744 3.559999942779541,-5.2129998207092285 2.2119998931884766,-5.611000061035156 C0.49900001287460327,-6.116000175476074 -1.2419999837875366,-5.859000205993652 -3.010999917984009,-4.836999893188477 C-4.228000164031982,-4.045000076293945 -5.031000137329102,-2.996000051498413 -5.418000221252441,-1.687999963760376 C-5.418000221252441,-1.687999963760376 -5.453999996185303,-1.562999963760376 -5.453999996185303,-1.562999963760376 C-5.992000102996826,0.26100000739097595 -5.644000053405762,1.9520000219345093 -4.409999847412109,3.513000011444092 C-3.4030001163482666,4.50600004196167 -2.257999897003174,5.191999912261963 -0.9760000109672546,5.570000171661377 C0.4020000100135803,5.9770002365112305 1.8480000495910645,5.920000076293945 3.365000009536743,5.39900016784668 C3.997999906539917,5.252999782562256 4.60699987411499,5.265999794006348 5.190999984741211,5.439000129699707 C6.318999767303467,5.771999835968018 7.089000225067139,6.5980000495910645 7.502999782562256,7.914000034332275 C7.638999938964844,8.531000137329102 7.624000072479248,9.116000175476074 7.459000110626221,9.67199993133545 C7.006999969482422,11.204000473022461 5.60699987411499,12.130000114440918 3.259000062942505,12.449999809265137 C1.149999976158142,12.826000213623047 -0.871999979019165,12.727999687194824 -2.806999921798706,12.157999992370605 C-2.806999921798706,12.157999992370605 -3.1410000324249268,12.057999610900879 -3.1410000324249268,12.057999610900879 C-5.534999847412109,11.35200023651123 -7.710000038146973,9.95300006866455 -9.666999816894531,7.861999988555908 C-10.109999656677246,7.368000030517578 -10.689000129699707,6.455999851226807 -11.399999618530273,5.125 C-11.815999984741211,4.125 -12.111000061035156,3.2290000915527344 -12.28600025177002,2.436000108718872 C-12.63700008392334,0.2879999876022339 -12.57699966430664,-1.5779999494552612 -12.109000205993652,-3.1649999618530273 C-12.109000205993652,-3.1649999618530273 -11.866999626159668,-3.9779999256134033 -11.866999626159668,-3.9779999256134033 C-11.354000091552734,-5.718999862670898 -10.288000106811523,-7.408999919891357 -8.670000076293945,-9.050000190734863 C-8.074999809265137,-9.677000045776367 -7.091000080108643,-10.369000434875488 -5.7179999351501465,-11.130000114440918 C-4.298999786376953,-11.831000328063965 -3.0920000076293945,-12.253999710083008 -2.0940001010894775,-12.39900016784668 C0.04399999976158142,-12.826000213623047 2.0869998931884766,-12.753000259399414 4.035999774932861,-12.177000045776367z"></path></g></g><g transform="matrix(0.9732734560966492,-0.2296493798494339,0.2296493798494339,0.9732734560966492,185.2156982421875,153.74124145507812)" opacity="1" style="display: block;"><g opacity="1" transform="matrix(1,0,0,1,47.18299865722656,46.52399826049805)"><path stroke-linecap="round" stroke-linejoin="round" fill-opacity="0" stroke="#615D56" stroke-opacity="1" stroke-width="6px" d=" M14.763999938964844,30.815000534057617 C14.763999938964844,30.815000534057617 -27.726999282836914,19.969999313354492 -27.726999282836914,19.969999313354492 C-30.5049991607666,19.26099967956543 -32.18299865722656,16.433000564575195 -31.474000930786133,13.654999732971191 C-31.474000930786133,13.654999732971191 -21.08099937438965,-27.066999435424805 -21.08099937438965,-27.066999435424805 C-20.371000289916992,-29.84600067138672 -17.542999267578125,-31.52400016784668 -14.763999938964844,-30.815000534057617 C-14.763999938964844,-30.815000534057617 27.726999282836914,-19.969999313354492 27.726999282836914,-19.969999313354492 C30.5049991607666,-19.26099967956543 32.18199920654297,-16.433000564575195 31.472999572753906,-13.654000282287598 C31.472999572753906,-13.654000282287598 21.07900047302246,27.06800079345703 21.07900047302246,27.06800079345703 C20.3700008392334,29.847000122070312 17.542999267578125,31.52400016784668 14.763999938964844,30.815000534057617z"></path></g><g opacity="1" transform="matrix(1,0,0,1,47.63199996948242,41.0890007019043)"><path fill="#615D56" fill-opacity="1" d=" M20.47800064086914,-8.107000350952148 C20.47800064086914,-8.107000350952148 -12.32699966430664,-16.479999542236328 -12.32699966430664,-16.479999542236328 C-13.970999717712402,-16.899999618530273 -15.644000053405762,-15.906999588012695 -16.062999725341797,-14.263999938964844 C-16.062999725341797,-14.263999938964844 -23.11400032043457,13.361000061035156 -23.11400032043457,13.361000061035156 C-23.11400032043457,13.361000061035156 -22.492000579833984,12.923999786376953 -22.492000579833984,12.923999786376953 C-22.492000579833984,12.923999786376953 -10.14900016784668,9.470000267028809 -10.14900016784668,9.470000267028809 C-10.14900016784668,9.470000267028809 -3.1089999675750732,16.899999618530273 -3.1089999675750732,16.899999618530273 C-3.1089999675750732,16.899999618530273 19.054000854492188,9.892000198364258 19.054000854492188,9.892000198364258 C19.054000854492188,9.892000198364258 22.694000244140625,-4.372000217437744 22.694000244140625,-4.372000217437744 C23.11400032043457,-6.014999866485596 22.121000289916992,-7.688000202178955 20.47800064086914,-8.107000350952148z M-8.354999542236328,1.680999994277954 C-11.432000160217285,0.8960000276565552 -13.289999961853027,-2.2360000610351562 -12.505000114440918,-5.313000202178955 C-11.720000267028809,-8.390999794006348 -8.588000297546387,-10.24899959564209 -5.511000156402588,-9.463000297546387 C-2.433000087738037,-8.678000450134277 -0.574999988079071,-5.546000003814697 -1.3609999418258667,-2.4690001010894775 C-2.1459999084472656,0.6079999804496765 -5.2779998779296875,2.4660000801086426 -8.354999542236328,1.680999994277954z"></path></g></g><g style="display: none;"><g><path></path></g><g><path></path></g><g><path></path></g></g><g transform="matrix(1,0,0,1,93.2586669921875,163.5496826171875)" opacity="1" style="display: block;"><g opacity="0" transform="matrix(1,0,0,1,84.4749984741211,39.39099884033203)"><path stroke-linecap="round" stroke-linejoin="round" fill-opacity="0" stroke="#615D56" stroke-opacity="1" stroke-width="6px" d=" M3.322000026702881,15.260000228881836 C5.670000076293945,4.2779998779296875 2.2950000762939453,-7.271999835968018 -5.670000076293945,-15.260000228881836"></path></g><g opacity="0" transform="matrix(1,0,0,1,24.834999084472656,54.65800094604492)"><path stroke-linecap="round" stroke-linejoin="round" fill-opacity="0" stroke="#615D56" stroke-opacity="1" stroke-width="6px" d=" M-2.2769999504089355,-14.119999885559082 C-4.461999893188477,-4.164999961853027 -1.9329999685287476,6.276000022888184 4.461999893188477,14.119999885559082"></path></g><g opacity="0" transform="matrix(1,0,0,1,94.60600280761719,36.66400146484375)"><path stroke-linecap="round" stroke-linejoin="round" fill-opacity="0" stroke="#615D56" stroke-opacity="1" stroke-width="6px" d=" M4.480000019073486,20.576000213623047 C7.644999980926514,5.769000053405762 3.0940001010894775,-9.805000305175781 -7.644999980926514,-20.576000213623047"></path></g><g opacity="0" transform="matrix(1,0,0,1,14.1899995803833,57.25)"><path stroke-linecap="round" stroke-linejoin="round" fill-opacity="0" stroke="#615D56" stroke-opacity="1" stroke-width="6px" d=" M-3.069999933242798,-19.038000106811523 C-6.015999794006348,-5.614999771118164 -2.6080000400543213,8.461000442504883 6.015999794006348,19.038000106811523"></path></g></g></g></svg>