<svg xmlns="http://www.w3.org/2000/svg" xmlns:xlink="http://www.w3.org/1999/xlink" viewBox="0 0 450 480" width="450" height="480" preserveAspectRatio="xMidYMid meet" style="width: 100%; height: 100%; transform: translate3d(0px, 0px, 0px); content-visibility: visible;"><defs><clipPath id="__lottie_element_104"><rect width="450" height="480" x="0" y="0"></rect></clipPath></defs><g clip-path="url(#__lottie_element_104)"><g style="display: none;" transform="matrix(1,0,0,1,168.3299560546875,258.7779846191406)" opacity="0.0004652188597175666"><path fill="#FBDA5F" fill-opacity="1" d=" M86.97,79.41 C63.69,81.66 39.66,81.53 15,79.41 C15,79.41 15,15.63 15,15.63 C39.53,15 63.5,15.02 86.97,15.63 C86.97,15.63 86.97,79.41 86.97,79.41z M28.340999603271484,30.077999114990234 C28.340999603271484,30.077999114990234 71.16400146484375,30.077999114990234 71.16400146484375,30.077999114990234 M28.340999603271484,50.784000396728516 C28.340999603271484,50.784000396728516 55.941001892089844,50.784000396728516 55.941001892089844,50.784000396728516 M28.340999603271484,64.33699798583984 C28.340999603271484,64.33699798583984 64.97599792480469,64.33699798583984 64.97599792480469,64.33699798583984"></path><g opacity="1" transform="matrix(1,0,0,1,50.98400115966797,48.32899856567383)"><path stroke-linecap="round" stroke-linejoin="round" fill-opacity="0" stroke="#615D56" stroke-opacity="1" stroke-width="6px" d=" M35.98400115966797,31.083999633789062 C12.708999633789062,33.33000183105469 -11.319999694824219,33.202999114990234 -35.98400115966797,31.083999633789062 C-35.98400115966797,31.083999633789062 -35.98400115966797,-32.69599914550781 -35.98400115966797,-32.69599914550781 C-11.45300006866455,-33.33000183105469 12.515000343322754,-33.30500030517578 35.98400115966797,-32.69599914550781 C35.98400115966797,-32.69599914550781 35.98400115966797,31.083999633789062 35.98400115966797,31.083999633789062z"></path></g><g opacity="1" transform="matrix(1,0,0,1,0,0)"><path stroke-linecap="round" stroke-linejoin="round" fill-opacity="0" stroke="#615D56" stroke-opacity="1" stroke-width="6px" d=" M28.340999603271484,30.077999114990234 C28.340999603271484,30.077999114990234 71.16400146484375,30.077999114990234 71.16400146484375,30.077999114990234"></path></g><g opacity="1" transform="matrix(1,0,0,1,0,0)"><path stroke-linecap="round" stroke-linejoin="round" fill-opacity="0" stroke="#615D56" stroke-opacity="1" stroke-width="6px" d=" M28.340999603271484,50.784000396728516 C28.340999603271484,50.784000396728516 55.941001892089844,50.784000396728516 55.941001892089844,50.784000396728516"></path></g><g opacity="1" transform="matrix(1,0,0,1,0,0)"><path stroke-linecap="round" stroke-linejoin="round" fill-opacity="0" stroke="#615D56" stroke-opacity="1" stroke-width="6px" d=" M28.340999603271484,64.33699798583984 C28.340999603271484,64.33699798583984 64.97599792480469,64.33699798583984 64.97599792480469,64.33699798583984"></path></g></g><g style="display: none;" transform="matrix(1,0,0,1,179.339111328125,258.6729736328125)" opacity="0.0004652188597175666"><path fill="#FBDA5F" fill-opacity="1" d=" M86.97,79.52 C56.64,80.72 27.47,81.7 15,79.52 C15,79.52 15,15.74 15,15.74 C44.15,15.23 70.52,15 86.97,15.74 C89.11,27.75 87.91,54.19 86.97,79.52z M28.875,30.183000564575195 C28.875,30.183000564575195 48.94499969482422,30.183000564575195 48.94499969482422,30.183000564575195 M28.875,50.888999938964844 C28.875,50.888999938964844 72.28600311279297,50.888999938964844 72.28600311279297,50.888999938964844 M28.875,64.44200134277344 C28.875,64.44200134277344 72.66300201416016,64.44200134277344 72.66300201416016,64.44200134277344"></path><g opacity="1" transform="matrix(1,0,0,1,52.05500030517578,48.35100173950195)"><path stroke-linecap="round" stroke-linejoin="round" fill-opacity="0" stroke="#615D56" stroke-opacity="1" stroke-width="6px" d=" M34.91400146484375,31.16699981689453 C4.586999893188477,32.36800003051758 -24.58799934387207,33.35100173950195 -37.05500030517578,31.16699981689453 C-37.05500030517578,31.16699981689453 -37.05500030517578,-32.61199951171875 -37.05500030517578,-32.61199951171875 C-7.906000137329102,-33.117000579833984 18.4689998626709,-33.35100173950195 34.91400146484375,-32.61199951171875 C37.05500030517578,-20.604999542236328 35.85499954223633,5.841000080108643 34.91400146484375,31.16699981689453z"></path></g><g opacity="1" transform="matrix(1,0,0,1,0,0)"><path stroke-linecap="round" stroke-linejoin="round" fill-opacity="0" stroke="#615D56" stroke-opacity="1" stroke-width="6px" d=" M28.875,30.183000564575195 C28.875,30.183000564575195 48.94499969482422,30.183000564575195 48.94499969482422,30.183000564575195"></path></g><g opacity="1" transform="matrix(1,0,0,1,0,0)"><path stroke-linecap="round" stroke-linejoin="round" fill-opacity="0" stroke="#615D56" stroke-opacity="1" stroke-width="6px" d=" M28.875,50.888999938964844 C28.875,50.888999938964844 72.28600311279297,50.888999938964844 72.28600311279297,50.888999938964844"></path></g><g opacity="1" transform="matrix(1,0,0,1,0,0)"><path stroke-linecap="round" stroke-linejoin="round" fill-opacity="0" stroke="#615D56" stroke-opacity="1" stroke-width="6px" d=" M28.875,64.44200134277344 C28.875,64.44200134277344 72.66300201416016,64.44200134277344 72.66300201416016,64.44200134277344"></path></g></g><g style="display: block;" transform="matrix(1,0,0,1,173.83399963378906,260.07427978515625)" opacity="0.99"><path fill="#FBDA5F" fill-opacity="1" d=" M86.97,78.91 C60.74,80.45 36.36,80.73 15,78.91 C15.49,57.14 15.47,35.91 15,15.13 C35.96,15 60.48,15.02 86.97,15.13 C86.97,15.13 86.97,78.91 86.97,78.91z M28.79599952697754,29.575000762939453 C28.79599952697754,29.575000762939453 46.98400115966797,29.575000762939453 46.98400115966797,29.575000762939453 M28.79599952697754,50.28099822998047 C28.79599952697754,50.28099822998047 72.95999908447266,50.28099822998047 72.95999908447266,50.28099822998047 M28.79599952697754,63.83399963378906 C28.79599952697754,63.83399963378906 65.43099975585938,63.83399963378906 65.43099975585938,63.83399963378906"></path><g opacity="1" transform="matrix(1,0,0,1,50.98500061035156,47.86399841308594)"><path stroke-linecap="round" stroke-linejoin="round" fill-opacity="0" stroke="#615D56" stroke-opacity="1" stroke-width="6px" d=" M35.98400115966797,31.04599952697754 C9.756999969482422,32.59000015258789 -14.628000259399414,32.86399841308594 -35.98400115966797,31.04599952697754 C-35.49100112915039,9.279999732971191 -35.513999938964844,-11.956000328063965 -35.98400115966797,-32.733001708984375 C-15.020999908447266,-32.86399841308594 9.494999885559082,-32.840999603271484 35.98400115966797,-32.733001708984375 C35.98400115966797,-32.733001708984375 35.98400115966797,31.04599952697754 35.98400115966797,31.04599952697754z"></path></g><g opacity="1" transform="matrix(1,0,0,1,0,0)"><path stroke-linecap="round" stroke-linejoin="round" fill-opacity="0" stroke="#615D56" stroke-opacity="1" stroke-width="6px" d=" M28.79599952697754,29.575000762939453 C28.79599952697754,29.575000762939453 46.98400115966797,29.575000762939453 46.98400115966797,29.575000762939453"></path></g><g opacity="1" transform="matrix(1,0,0,1,0,0)"><path stroke-linecap="round" stroke-linejoin="round" fill-opacity="0" stroke="#615D56" stroke-opacity="1" stroke-width="6px" d=" M28.79599952697754,50.28099822998047 C28.79599952697754,50.28099822998047 72.95999908447266,50.28099822998047 72.95999908447266,50.28099822998047"></path></g><g opacity="1" transform="matrix(1,0,0,1,0,0)"><path stroke-linecap="round" stroke-linejoin="round" fill-opacity="0" stroke="#615D56" stroke-opacity="1" stroke-width="6px" d=" M28.79599952697754,63.83399963378906 C28.79599952697754,63.83399963378906 65.43099975585938,63.83399963378906 65.43099975585938,63.83399963378906"></path></g></g><g transform="matrix(0.9999452233314514,0.010466828010976315,-0.010466828010976315,0.9999452233314514,126.86686706542969,96.40709686279297)" opacity="1" style="display: block;"><g opacity="1" transform="matrix(1,0,0,1,99.34600067138672,71.79100036621094)"><path stroke-linecap="round" stroke-linejoin="round" fill-opacity="0" stroke="#615D56" stroke-opacity="1" stroke-width="6px" d=" M74.34600067138672,56.79100036621094 C74.34600067138672,56.79100036621094 -74.34600067138672,56.79100036621094 -74.34600067138672,56.79100036621094 C-79.86900329589844,56.79100036621094 -84.34600067138672,52.31399917602539 -84.34600067138672,46.79100036621094 C-84.34600067138672,46.79100036621094 -84.34600067138672,-46.79100036621094 -84.34600067138672,-46.79100036621094 C-84.34600067138672,-52.31399917602539 -79.86900329589844,-56.79100036621094 -74.34600067138672,-56.79100036621094 C-74.34600067138672,-56.79100036621094 74.34600067138672,-56.79100036621094 74.34600067138672,-56.79100036621094 C79.86900329589844,-56.79100036621094 84.34600067138672,-52.31399917602539 84.34600067138672,-46.79100036621094 C84.34600067138672,-46.79100036621094 84.34600067138672,46.79100036621094 84.34600067138672,46.79100036621094 C84.34600067138672,52.31399917602539 79.86900329589844,56.79100036621094 74.34600067138672,56.79100036621094z"></path></g><g opacity="1" transform="matrix(1,0,0,1,0,0)"><path stroke-linecap="butt" stroke-linejoin="miter" fill-opacity="0" stroke-miterlimit="10" stroke="#615D56" stroke-opacity="1" stroke-width="6px" d=" M27.229000091552734,100.28299713134766 C27.229000091552734,100.28299713134766 171.46099853515625,100.28299713134766 171.46099853515625,100.28299713134766"></path></g><g opacity="1" transform="matrix(1,0,0,1,31.34000015258789,114.01699829101562)"><path fill="#615D56" fill-opacity="1" d=" M3.134000062942505,-1.093000054359436 C3.134000062942505,-1.093000054359436 -2.0820000171661377,-4.104000091552734 -2.0820000171661377,-4.104000091552734 C-2.9230000972747803,-4.590000152587891 -3.9749999046325684,-3.9830000400543213 -3.9749999046325684,-3.01200008392334 C-3.9749999046325684,-3.01200008392334 -3.9749999046325684,3.010999917984009 -3.9749999046325684,3.010999917984009 C-3.9749999046325684,3.9820001125335693 -2.9230000972747803,4.590000152587891 -2.0820000171661377,4.104000091552734 C-2.0820000171661377,4.104000091552734 3.134000062942505,1.0920000076293945 3.134000062942505,1.0920000076293945 C3.9749999046325684,0.6069999933242798 3.9749999046325684,-0.6069999933242798 3.134000062942505,-1.093000054359436z"></path></g><g opacity="1" transform="matrix(1,0,0,1,48.314998626708984,113.50499725341797)"><path fill="#615D56" fill-opacity="1" d=" M3.3399999141693115,-3.759999990463257 C2.8489999771118164,-3.759999990463257 2.4509999752044678,-3.3610000610351562 2.4509999752044678,-2.869999885559082 C2.4509999752044678,-2.869999885559082 2.4509999752044678,-0.7429999709129333 2.4509999752044678,-0.7429999709129333 C2.371000051498413,-0.8339999914169312 2.2799999713897705,-0.9179999828338623 2.1670000553131104,-0.984000027179718 C2.1670000553131104,-0.984000027179718 -2.5269999504089355,-3.694000005722046 -2.5269999504089355,-3.694000005722046 C-3.2839999198913574,-4.13100004196167 -4.230000019073486,-3.5840001106262207 -4.230000019073486,-2.7100000381469727 C-4.230000019073486,-2.7100000381469727 -4.230000019073486,2.7100000381469727 -4.230000019073486,2.7100000381469727 C-4.230000019073486,3.5850000381469727 -3.2839999198913574,4.13100004196167 -2.5269999504089355,3.694000005722046 C-2.5269999504089355,3.694000005722046 2.1670000553131104,0.984000027179718 2.1670000553131104,0.984000027179718 C2.2799999713897705,0.9179999828338623 2.371000051498413,0.8349999785423279 2.4509999752044678,0.7440000176429749 C2.4509999752044678,0.7440000176429749 2.4509999752044678,3.2279999256134033 2.4509999752044678,3.2279999256134033 C2.4509999752044678,3.7190001010894775 2.8489999771118164,4.118000030517578 3.3399999141693115,4.118000030517578 C3.8310000896453857,4.118000030517578 4.230000019073486,3.7190001010894775 4.230000019073486,3.2279999256134033 C4.230000019073486,3.2279999256134033 4.230000019073486,-2.869999885559082 4.230000019073486,-2.869999885559082 C4.230000019073486,-3.3610000610351562 3.8310000896453857,-3.759999990463257 3.3399999141693115,-3.759999990463257z"></path></g><g opacity="1" transform="matrix(1,0,0,1,64.96800231933594,114.01599884033203)"><path fill="#615D56" fill-opacity="1" d=" M-0.3479999899864197,-2.0309998989105225 C-0.3479999899864197,-2.0309998989105225 -2.933000087738037,-2.0309998989105225 -2.933000087738037,-2.0309998989105225 C-3.236999988555908,-2.0309998989105225 -3.4820001125335693,-1.784999966621399 -3.4820001125335693,-1.4819999933242798 C-3.4820001125335693,-1.4819999933242798 -3.4820001125335693,1.4830000400543213 -3.4820001125335693,1.4830000400543213 C-3.4820001125335693,1.7860000133514404 -3.236999988555908,2.0320000648498535 -2.933000087738037,2.0320000648498535 C-2.933000087738037,2.0320000648498535 -0.3479999899864197,2.0320000648498535 -0.3479999899864197,2.0320000648498535 C-0.3479999899864197,2.0320000648498535 2.5160000324249268,4.548999786376953 2.5160000324249268,4.548999786376953 C2.8919999599456787,4.879000186920166 3.4820001125335693,4.611999988555908 3.4820001125335693,4.111999988555908 C3.4820001125335693,4.111999988555908 3.4820001125335693,-4.111000061035156 3.4820001125335693,-4.111000061035156 C3.4820001125335693,-4.611999988555908 2.8919999599456787,-4.879000186920166 2.5160000324249268,-4.547999858856201 C2.5160000324249268,-4.547999858856201 -0.3479999899864197,-2.0309998989105225 -0.3479999899864197,-2.0309998989105225z"></path></g></g><g transform="matrix(0.9999452233314514,0.010466828010976315,-0.010466828010976315,0.9999452233314514,192.12106323242188,126.06072235107422)" opacity="1" style="display: block;"><g opacity="1" transform="matrix(1,0,0,1,29.93000030517578,3.7699999809265137)"><path fill="#615D56" fill-opacity="1" d=" M-18.002683639526367,3.09582781791687 C-15.59868335723877,1.9498276710510254 -12.68868350982666,2.3358278274536133 -10.126683235168457,2.543827772140503 C-6.817683696746826,2.8128278255462646 -3.50468373298645,2.983827829360962 -0.1846836507320404,3.0218276977539062 C6.416316509246826,3.098827600479126 13.01331615447998,2.6858277320861816 19.556316375732422,1.8178277015686035 C20.894315719604492,1.6408277750015259 22.056316375732422,0.7958276867866516 22.056316375732422,-0.6821722984313965 C22.056316375732422,-1.8951722383499146 20.904315948486328,-3.3591723442077637 19.556316375732422,-3.1811723709106445 C12.690316200256348,-2.270172357559204 5.764316558837891,-1.8611723184585571 -1.1616836786270142,-1.9921722412109375 C-4.514683723449707,-2.0551722049713135 -7.848683834075928,-2.2941722869873047 -11.190683364868164,-2.5411722660064697 C-14.422683715820312,-2.780172348022461 -17.556684494018555,-2.6351723670959473 -20.526683807373047,-1.2201722860336304 C-21.74468421936035,-0.6401723027229309 -22.063684463500977,1.103827714920044 -21.422683715820312,2.1988277435302734 C-20.693683624267578,3.4458277225494385 -19.225683212280273,3.6788277626037598 -18.002683639526367,3.09582781791687z"></path></g><g opacity="1" transform="matrix(1,0,0,1,30.22599983215332,25.055999755859375)"><path fill="#615D56" fill-opacity="1" d=" M-24.665224075317383,-18.939071655273438 C-22.260225296020508,-5.66907262802124 -20.986000061035156,7.757937908172607 -20.812000274658203,21.242937088012695 C-20.781999588012695,23.57693862915039 -18.174999237060547,24.31993865966797 -16.545000076293945,23.01093864440918 C-13.934000015258789,20.913938522338867 -11.151000022888184,19.046937942504883 -8.392000198364258,17.15393829345703 C-6.993000030517578,16.19493865966797 -5.5970001220703125,15.230937957763672 -4.228000164031982,14.228938102722168 C-3.427999973297119,13.643938064575195 -2.6389999389648438,13.043937683105469 -1.8559999465942383,12.434937477111816 C-1.3320000171661377,12.027937889099121 -0.75,11.391938209533691 -0.12200000137090683,11.143938064575195 C0.38499999046325684,10.943938255310059 -0.2750000059604645,11.069937705993652 -0.024000000208616257,11.10993766784668 C0.1979999989271164,11.146937370300293 0.5669999718666077,11.462937355041504 0.7319999933242798,11.57393741607666 C1.4459999799728394,12.052937507629395 2.135999917984009,12.571937561035156 2.8440001010894775,13.059937477111816 C4.263999938964844,14.035938262939453 5.706999778747559,14.978938102722168 7.15500020980835,15.911937713623047 C10.125,17.825937271118164 13.140316009521484,19.721269607543945 16.01431655883789,21.77726936340332 C17.329315185546875,22.71826934814453 19.319316864013672,21.74026870727539 19.68731689453125,20.28326988220215 C21.487316131591797,13.155269622802734 22.79599952697754,5.806000232696533 23.722000122070312,-1.4869999885559082 C24.16200065612793,-4.954999923706055 24.529775619506836,-8.306072235107422 24.717775344848633,-11.798072814941406 C24.900775909423828,-15.204072952270508 24.757774353027344,-18.71807289123535 23.500774383544922,-21.929073333740234 C23.00877571105957,-23.18507194519043 21.823774337768555,-24.06007194519043 20.424774169921875,-23.675071716308594 C19.226774215698242,-23.346073150634766 18.183774948120117,-21.864072799682617 18.678775787353516,-20.600072860717773 C19.819774627685547,-17.68707275390625 19.88377571105957,-14.665072441101074 19.704774856567383,-11.578072547912598 C19.50677490234375,-8.159072875976562 19.152000427246094,-4.883999824523926 18.722000122070312,-1.4869999885559082 C17.854999542236328,5.35699987411499 16.5543155670166,12.267269134521484 14.865316390991211,18.954269409179688 C16.090316772460938,18.456270217895508 17.314315795898438,17.958269119262695 18.53831672668457,17.460269927978516 C15.349315643310547,15.179269790649414 11.991999626159668,13.100937843322754 8.706000328063965,10.965937614440918 C7.107999801635742,9.927937507629395 5.526000022888184,8.867938041687012 3.9719998836517334,7.766937732696533 C2.380000114440918,6.637938022613525 0.6800000071525574,5.718937873840332 -1.3350000381469727,6.272937774658203 C-3.1429998874664307,6.770937919616699 -4.539000034332275,8.263937950134277 -6.002999782562256,9.357937812805176 C-7.486999988555908,10.467937469482422 -9.008000373840332,11.526937484741211 -10.53499984741211,12.57593822479248 C-13.77400016784668,14.8019380569458 -17.013999938964844,17.011938095092773 -20.079999923706055,19.474937438964844 C-18.656999588012695,20.06393814086914 -17.235000610351562,20.65393829345703 -15.812000274658203,21.242937088012695 C-15.991999626159668,7.313937664031982 -17.359224319458008,-6.56207275390625 -19.84422492980957,-20.2680721282959 C-20.085224151611328,-21.598072052001953 -21.70122528076172,-22.34907341003418 -22.919225692749023,-22.01407241821289 C-24.318225860595703,-21.63007164001465 -24.907224655151367,-20.272071838378906 -24.665224075317383,-18.939071655273438z"></path></g><g opacity="1" transform="matrix(0.736548662185669,0.6763845682144165,-0.6763845682144165,0.736548662185669,2.7801976203918457,25.303916931152344)"><path fill="#615D56" fill-opacity="1" d=" M1.2020000219345093,-8 C-1.7599999904632568,-3.611999988555908 -4.099999904632568,1.1690000295639038 -5.826000213623047,6.171999931335449 C-6.252999782562256,7.409999847412109 -5.339000225067139,8.961000442504883 -4.079999923706055,9.246999740600586 C-2.687999963760376,9.564000129699707 -1.4609999656677246,8.826000213623047 -1.003999948501587,7.500999927520752 C-0.6039999723434448,6.341000080108643 -0.1720000058412552,5.191999912261963 0.30000001192092896,4.059000015258789 C0.13099999725818634,4.464000225067139 0.49799999594688416,3.6059999465942383 0.5320000052452087,3.5290000438690186 C0.6639999747276306,3.2290000915527344 0.7990000247955322,2.930999994277954 0.9359999895095825,2.634000062942505 C1.194000005722046,2.0769999027252197 1.4600000381469727,1.524999976158142 1.7350000143051147,0.9760000109672546 C2.8550000190734863,-1.2549999952316284 4.123000144958496,-3.4070000648498535 5.519000053405762,-5.47599983215332 C6.252999782562256,-6.563000202178955 5.763000011444092,-8.293999671936035 4.622000217437744,-8.897000312805176 C3.3589999675750732,-9.564000129699707 1.9850000143051147,-9.15999984741211 1.2020000219345093,-8z"></path></g><g opacity="1" transform="matrix(0.5821965336799622,0.8130480647087097,-0.8130480647087097,0.5821965336799622,60.28462219238281,26.67245864868164)"><path fill="#615D56" fill-opacity="1" d=" M-5.51200008392334,6.464000225067139 C-3.2360000610351562,4.869999885559082 -0.9620000123977661,3.2750000953674316 1.3140000104904175,1.6820000410079956 C2.433000087738037,0.8980000019073486 3.552000045776367,0.11500000208616257 4.671000003814697,-0.6690000295639038 C5.208000183105469,-1.0449999570846558 5.739999771118164,-1.434999942779541 6.2870001792907715,-1.7960000038146973 C6.545000076293945,-1.965000033378601 6.809999942779541,-2.1419999599456787 7.0929999351501465,-2.2669999599456787 C6.8470001220703125,-2.1659998893737793 6.861999988555908,-2.1610000133514404 7.136000156402588,-2.253000020980835 C6.841000080108643,-2.234999895095825 6.843999862670898,-2.2309999465942383 7.144999980926514,-2.240999937057495 C8.45199966430664,-2.2639999389648438 9.706999778747559,-3.374000072479248 9.645000457763672,-4.741000175476074 C9.586000442504883,-6.074999809265137 8.545999526977539,-7.265999794006348 7.144999980926514,-7.241000175476074 C5.513000011444092,-7.210999965667725 4.224999904632568,-6.440999984741211 2.931999921798706,-5.534999847412109 C1.7009999752044678,-4.672999858856201 0.4699999988079071,-3.811000108718872 -0.7609999775886536,-2.947999954223633 C-3.186000108718872,-1.25 -5.611000061035156,0.4480000138282776 -8.03600025177002,2.1470000743865967 C-9.104000091552734,2.8949999809265137 -9.706000328063965,4.367000102996826 -8.932000160217285,5.565999984741211 C-8.248000144958496,6.627999782562256 -6.6579999923706055,7.265999794006348 -5.51200008392334,6.464000225067139z"></path></g><g opacity="1" transform="matrix(1,0,0,1,21.77899932861328,48.92499923706055)"><path fill="#615D56" fill-opacity="1" d=" M-1.6394346952438354,-8.488607406616211 C-1.4624346494674683,-5.733607292175293 -1.2860000133514404,-3.125999927520752 -1.1100000143051147,-0.3709999918937683 C-1.024999976158142,0.9509999752044678 -0.9399999976158142,2.2739999294281006 -0.8550000190734863,3.5959999561309814 C-0.8130000233650208,4.257999897003174 -0.7699999809265137,4.919000148773193 -0.7279999852180481,5.579999923706055 C-0.703000009059906,5.966000080108643 -0.6779999732971191,6.3520002365112305 -0.6539999842643738,6.736999988555908 C-0.6430000066757202,6.9029998779296875 -0.6320000290870667,7.067999839782715 -0.621999979019165,7.232999801635742 C-0.6230000257492065,7.678999900817871 -0.5669999718666077,7.507999897003174 -0.453000009059906,6.7179999351501465 C-0.15399999916553497,6.419000148773193 0.14499999582767487,6.119999885559082 0.4440000057220459,5.821000099182129 C1.1139999628067017,5.689000129699707 1.2660000324249268,5.629000186920166 0.9020000100135803,5.640999794006348 C0.7480000257492065,5.639999866485596 0.593999981880188,5.638999938964844 0.4399999976158142,5.638000011444092 C0.18400000035762787,5.636000156402588 -0.0729999989271164,5.633999824523926 -0.32899999618530273,5.631999969482422 C-0.8939999938011169,5.626999855041504 -1.4579999446868896,5.623000144958496 -2.0220000743865967,5.618000030517578 C-3.372999906539917,5.607999801635742 -4.521999835968018,6.775000095367432 -4.521999835968018,8.118000030517578 C-4.521999835968018,9.482999801635742 -3.378000020980835,10.607999801635742 -2.0220000743865967,10.618000030517578 C-0.006000000052154064,10.633999824523926 2.6519999504089355,11.13700008392334 3.9200000762939453,9.163999557495117 C4.521999835968018,8.22599983215332 4.370999813079834,7.123000144958496 4.303999900817871,6.076000213623047 C4.239999771118164,5.084000110626221 4.177000045776367,4.0920000076293945 4.11299991607666,3.0999999046325684 C3.861999988555908,-0.8119999766349792 3.611565351486206,-4.576607704162598 3.360565423965454,-8.488607406616211 C3.2745652198791504,-9.836607933044434 2.2735652923583984,-10.988607406616211 0.8605653047561646,-10.988607406616211 C-0.4254347085952759,-10.988607406616211 -1.7264347076416016,-9.842607498168945 -1.6394346952438354,-8.488607406616211z"></path></g><g opacity="1" transform="matrix(1,0,0,1,42.91600036621094,47.94300079345703)"><path fill="#615D56" fill-opacity="1" d=" M-5.900434494018555,-8.279607772827148 C-6.073434829711914,-2.664607524871826 -6.104000091552734,2.7850000858306885 -5.86299991607666,8.39799976348877 C-5.804999828338623,9.751999855041504 -4.764999866485596,10.892999649047852 -3.36299991607666,10.89799976348877 C-1.0410000085830688,10.906000137329102 1.281000018119812,10.914999961853027 3.6040000915527344,10.92300033569336 C4.954999923706055,10.928000450134277 6.104000091552734,9.770999908447266 6.104000091552734,8.42300033569336 C6.104000091552734,7.063000202178955 4.959000110626221,5.927999973297119 3.6040000915527344,5.922999858856201 C1.281000018119812,5.914999961853027 -1.0410000085830688,5.906000137329102 -3.36299991607666,5.8979997634887695 C-2.5299999713897705,6.730999946594238 -1.6970000267028809,7.565000057220459 -0.8629999756813049,8.39799976348877 C-1.1039999723434448,2.7850000858306885 -1.0734347105026245,-2.664607524871826 -0.900434672832489,-8.279607772827148 C-0.8584346771240234,-9.630607604980469 -2.079434633255005,-10.779607772827148 -3.400434732437134,-10.779607772827148 C-4.789434909820557,-10.779607772827148 -5.858434677124023,-9.634607315063477 -5.900434494018555,-8.279607772827148z"></path></g><g opacity="1" transform="matrix(1,0,0,1,22.893999099731445,13.234832763671875)"><path fill="#615D56" fill-opacity="1" d=" M0,2.5 C3.2170000076293945,2.5 3.2230000495910645,-2.5 0,-2.5 C-3.2170000076293945,-2.5 -3.2230000495910645,2.5 0,2.5z"></path></g><g opacity="1" transform="matrix(1,0,0,1,36.61800003051758,13.234832763671875)"><path fill="#615D56" fill-opacity="1" d=" M0,2.5 C3.2170000076293945,2.5 3.2230000495910645,-2.5 0,-2.5 C-3.2170000076293945,-2.5 -3.2230000495910645,2.5 0,2.5z"></path></g><g opacity="1" transform="matrix(1,0,0,1,30.027000427246094,19.895832061767578)"><path fill="#615D56" fill-opacity="1" d=" M-6.065999984741211,-1.090999960899353 C-5.540999889373779,1.2230000495910645 -3.927999973297119,3.1530001163482666 -1.659999966621399,3.9030001163482666 C0.42500001192092896,4.593999862670898 2.828000068664551,3.9110000133514404 4.3480000495910645,2.36299991607666 C5.306000232696533,1.3880000114440918 5.953000068664551,0.09799999743700027 6.23799991607666,-1.2319999933242798 C6.377999782562256,-1.8899999856948853 6.331999778747559,-2.565999984741211 5.986000061035156,-3.1589999198913574 C5.682000160217285,-3.677000045776367 5.0879998207092285,-4.171999931335449 4.492000102996826,-4.307000160217285 C3.2339999675750732,-4.593999862670898 1.7079999446868896,-3.928999900817871 1.4149999618530273,-2.561000108718872 C1.3359999656677246,-2.191999912261963 1.2309999465942383,-1.8339999914169312 1.0889999866485596,-1.4839999675750732 C1.1729999780654907,-1.6829999685287476 1.25600004196167,-1.8819999694824219 1.340000033378601,-2.0820000171661377 C1.1770000457763672,-1.6990000009536743 0.9760000109672546,-1.340999960899353 0.7229999899864197,-1.0099999904632568 C0.8529999852180481,-1.1790000200271606 0.9819999933242798,-1.3480000495910645 1.1130000352859497,-1.5160000324249268 C0.9100000262260437,-1.2619999647140503 0.6850000023841858,-1.034000039100647 0.4300000071525574,-0.8320000171661377 C0.5989999771118164,-0.9629999995231628 0.7680000066757202,-1.093000054359436 0.9369999766349792,-1.2230000495910645 C0.6949999928474426,-1.0390000343322754 0.43700000643730164,-0.8859999775886536 0.15800000727176666,-0.7639999985694885 C0.3569999933242798,-0.8479999899864197 0.5559999942779541,-0.9319999814033508 0.7549999952316284,-1.0160000324249268 C0.46399998664855957,-0.8949999809265137 0.16300000250339508,-0.8130000233650208 -0.15000000596046448,-0.7699999809265137 C0.07199999690055847,-0.800000011920929 0.2939999997615814,-0.8299999833106995 0.515999972820282,-0.859000027179718 C0.2290000021457672,-0.8259999752044678 -0.05700000002980232,-0.8259999752044678 -0.3440000116825104,-0.859000027179718 C-0.12300000339746475,-0.8299999833106995 0.09799999743700027,-0.800000011920929 0.3199999928474426,-0.7699999809265137 C0.007000000216066837,-0.8130000233650208 -0.2919999957084656,-0.8939999938011169 -0.5830000042915344,-1.0130000114440918 C-0.3840000033378601,-0.9290000200271606 -0.1850000023841858,-0.8450000286102295 0.014000000432133675,-0.7609999775886536 C-0.28600001335144043,-0.8899999856948853 -0.5630000233650208,-1.0540000200271606 -0.8220000267028809,-1.253000020980835 C-0.652999997138977,-1.1230000257492065 -0.48399999737739563,-0.9929999709129333 -0.3160000145435333,-0.8619999885559082 C-0.5669999718666077,-1.062999963760376 -0.7900000214576721,-1.2890000343322754 -0.9900000095367432,-1.5399999618530273 C-0.8600000143051147,-1.371000051498413 -0.7289999723434448,-1.2029999494552612 -0.5979999899864197,-1.034000039100647 C-0.8450000286102295,-1.3559999465942383 -1.0429999828338623,-1.7039999961853027 -1.2029999494552612,-2.0769999027252197 C-1.11899995803833,-1.878000020980835 -1.034999966621399,-1.6790000200271606 -0.9509999752044678,-1.4800000190734863 C-1.0750000476837158,-1.7860000133514404 -1.1710000038146973,-2.0980000495910645 -1.2450000047683716,-2.4200000762939453 C-1.534000039100647,-3.697000026702881 -3.0759999752044678,-4.568999767303467 -4.320000171661377,-4.165999889373779 C-5.6570000648498535,-3.7339999675750732 -6.376999855041504,-2.4590001106262207 -6.065999984741211,-1.090999960899353z"></path></g></g><g transform="matrix(1,0,0,1,224.5,240)" opacity="1" style="display: block;"><g opacity="1" transform="matrix(1,0,0,1,0,0)"><path stroke-linecap="round" stroke-linejoin="round" fill-opacity="0" stroke-dasharray=" 8" stroke-dashoffset="15.669744491577148" stroke="#605C55" stroke-opacity="1" stroke-width="6px" d=" M0.5,33 C0.5,33 0.5,-14.125 0.5,-14.125"></path></g></g></g></svg>