<svg xmlns:xlink="http://www.w3.org/1999/xlink" role="img" class="svg-bulb-logo overflow-visible template-home_nav-logo" xmlns="http://www.w3.org/2000/svg" viewBox="0 0 92 92" preserveAspectRatio="xMidYMin meet" width="92" height="92"><circle class="fill-white" transform="translate(3 3)" cx="43" cy="43" r="43" fill="#FFFFFF"></circle><path class="fill-navy" d="M28.526 87.594a45.093 45.093 0 0 1 0-83.052 45.08 45.08 0 0 1 35.086 83.052 45.211 45.211 0 0 1-35.087 0Zm-5.781-7.739a40.992 40.992 0 0 0 46.739-.064L54.9 59.773a17.5 17.5 0 0 0-1.253 5.127v.008a2.565 2.565 0 0 1-2.549 2.3H41.02a2.565 2.565 0 0 1-2.549-2.3V64.9a17.511 17.511 0 0 0-1.224-5.077ZM15.7 73.687a41.384 41.384 0 0 0 5.539 5.073l15.135-20.9c-.244-.5-.5-.994-.753-1.48Zm40.072-15.874 15.216 20.88a41.343 41.343 0 0 0 5.526-5.093L56.523 56.34c-.254.484-.507.974-.751 1.473Zm-45.545 8.292a41.345 41.345 0 0 0 4.249 6.177l20.25-17.595c-.211-.4-.421-.812-.624-1.224ZM57.416 54.65 77.732 72.2a41.182 41.182 0 0 0 4.236-6.2L58.042 53.415c-.203.416-.414.827-.626 1.235ZM51.1 65.349a.688.688 0 0 0 .693-.6c.338-4.1 1.938-7.116 3.486-10.036 1.5-2.831 2.919-5.505 2.919-8.884a11.733 11.733 0 0 0-12.13-11.849h-.019c-7.14 0-12.127 4.872-12.127 11.848 0 3.376 1.416 6.045 2.915 8.87 1.549 2.921 3.151 5.939 3.489 10.049a.688.688 0 0 0 .693.6H43.1a84.133 84.133 0 0 0-.223-13.74c-.175-.053-.351-.112-.528-.177a7.289 7.289 0 0 1-4.107-3.538 3.29 3.29 0 0 1 .1-3.533 2.66 2.66 0 0 1 2.645-1.033c1.322.25 2.358 1.412 2.84 3.186a30.477 30.477 0 0 1 .733 3.575 9.625 9.625 0 0 0 1.481.116A9.112 9.112 0 0 0 47.4 50.1a23.218 23.218 0 0 1 .981-4.354 3.814 3.814 0 0 1 2.874-2.814 2.681 2.681 0 0 1 2.563 1.147 3.638 3.638 0 0 1 .009 3.828 7.639 7.639 0 0 1-4.738 3.718 90.451 90.451 0 0 0-.115 13.729Zm-4 0A91.86 91.86 0 0 1 47.174 52a10.656 10.656 0 0 1-1.14.065A11.4 11.4 0 0 1 44.8 52a71.1 71.1 0 0 1 .348 7.321c0 2.624-.1 4.819-.179 6.03ZM6.609 57.466a40.649 40.649 0 0 0 2.744 6.994l23.976-12.7q-.251-.606-.465-1.235Zm52.2-5.752 24.028 12.641a40.723 40.723 0 0 0 2.722-7l-26.288-6.873c-.14.418-.295.829-.459 1.232ZM5.055 48.225a40.935 40.935 0 0 0 1.076 7.441l26.236-6.934c-.091-.428-.164-.864-.216-1.312Zm54.7.461 26.271 6.872a40.993 40.993 0 0 0 1.056-7.439l-27.116-.741c-.046.446-.117.882-.206 1.308ZM51.5 44.772c-.533.073-1.044.666-1.367 1.587a19.278 19.278 0 0 0-.771 3.186 5.582 5.582 0 0 0 2.814-2.516 1.842 1.842 0 0 0 .108-1.887.8.8 0 0 0-.784-.369Zm-11.672.7a1.477 1.477 0 0 0 .063 1.565 5.42 5.42 0 0 0 2.68 2.478c-.151-.878-.333-1.722-.549-2.511-.285-1.046-.8-1.736-1.39-1.847a.874.874 0 0 0-.158-.015.8.8 0 0 0-.643.331ZM5 46.068v.3l27.062-.806q.011-.679.081-1.341L5.629 38.882A41.21 41.21 0 0 0 5 46.068Zm54.965-1.887q.076.661.09 1.336l27.082.741v-.189a41.1 41.1 0 0 0-.649-7.293ZM6 37.056l26.457 5.323q.157-.667.373-1.307L8.309 29.918A40.748 40.748 0 0 0 6 37.056Zm53.243 4q.227.635.393 1.293l26.484-5.4a40.664 40.664 0 0 0-2.334-7.136ZM9.083 28.224l24.462 11.129a13.216 13.216 0 0 1 .687-1.205L12.96 21.795a41.086 41.086 0 0 0-3.877 6.429ZM57.8 38.171a13.282 13.282 0 0 1 .692 1.176L83 28.122a41.117 41.117 0 0 0-3.9-6.42Zm-2.085-2.455q.288.265.559.547c.135.14.266.283.394.428l21.3-16.462a41.378 41.378 0 0 0-5.244-5.38ZM14.1 20.319l21.25 16.339q.242-.278.5-.542c.156-.159.316-.313.48-.463l-17-20.73a41.509 41.509 0 0 0-5.23 5.396Zm38.99 13.515a13.33 13.33 0 0 1 1.169.718l17.022-20.881a41.207 41.207 0 0 0-6.316-4.061ZM20.766 13.741 37.794 34.5a13.123 13.123 0 0 1 1.177-.709L27.065 9.667a41.194 41.194 0 0 0-6.299 4.074Zm29.367 18.906q.645.177 1.264.41l11.9-24.269a40.725 40.725 0 0 0-7.079-2.521ZM28.734 8.84l11.94 24.189q.635-.232 1.3-.406L35.8 6.3a40.63 40.63 0 0 0-7.066 2.54Zm18.246 23.3q.674.036 1.327.13L54.4 5.849a41.047 41.047 0 0 0-7.452-.841ZM37.615 5.874l6.185 26.39q.647-.088 1.316-.123l-.033-27.13a40.984 40.984 0 0 0-7.468.863Zm3.051 71.77a.745.745 0 0 1 .745-.745h9.314a.744.744 0 0 1 .745.745 5.4 5.4 0 0 1-10.8 0Zm-.614-2.534a1.661 1.661 0 0 1-1.659-1.659V70.4a1.66 1.66 0 0 1 1.659-1.658H52.1a1.659 1.659 0 0 1 1.662 1.658v3.055a1.66 1.66 0 0 1-1.662 1.656Z" fill="#161B32"></path></svg>